

<svg width="19" height="15" viewBox="0 0 19 15" fill="none" xmlns="http://www.w3.org/2000/svg">
    <path d="M18.5854 6.75C18.5854 6.34375 18.2417 6 17.8354 6H15.7104L12.3667 1.4375C12.0542 0.96875 11.4292 0.875 10.9917 1.21875C10.5229 1.53125 10.4292 2.15625 10.7729 2.59375L13.2417 6H5.89795L8.3667 2.59375C8.71045 2.15625 8.6167 1.53125 8.14795 1.21875C7.71045 0.875 7.08545 0.96875 6.77295 1.4375L3.4292 6H1.33545C0.897949 6 0.585449 6.34375 0.585449 6.75V7.25C0.585449 7.6875 0.897949 8 1.33545 8H1.58545L2.39795 13.7188C2.4917 14.4688 3.1167 15 3.8667 15H15.2729C16.0229 15 16.6479 14.4688 16.7417 13.7188L17.5854 8H17.8354C18.2417 8 18.5854 7.6875 18.5854 7.25V6.75ZM10.3354 12.25C10.3354 12.6875 9.9917 13 9.58545 13C9.14795 13 8.83545 12.6875 8.83545 12.25V8.75C8.83545 8.34375 9.14795 8 9.58545 8C9.9917 8 10.3354 8.34375 10.3354 8.75V12.25ZM13.8354 12.25C13.8354 12.6875 13.4917 13 13.0854 13C12.6479 13 12.3354 12.6875 12.3354 12.25V8.75C12.3354 8.34375 12.6479 8 13.0854 8C13.4917 8 13.8354 8.34375 13.8354 8.75V12.25ZM6.83545 12.25C6.83545 12.6875 6.4917 13 6.08545 13C5.64795 13 5.33545 12.6875 5.33545 12.25V8.75C5.33545 8.34375 5.64795 8 6.08545 8C6.4917 8 6.83545 8.34375 6.83545 8.75V12.25Z" fill="#F5F1FA"/>
</svg>
