<svg width="29" height="29" viewBox="0 0 29 29" fill="none" xmlns="http://www.w3.org/2000/svg">
<circle cx="14.5" cy="14.5" r="14.5" fill="#FFDA47"/>
<path d="M21.4286 11.6002H18.8771L16.7611 8.26734C16.5863 7.99134 16.2309 7.91695 15.9686 8.10114C15.7063 8.28474 15.6354 8.65732 15.8103 8.93332L17.504 11.6002H10.496L12.1897 8.93332C12.3646 8.65792 12.2937 8.28474 12.0314 8.10114C11.7686 7.91695 11.4137 7.99134 11.2389 8.26734L9.12286 11.6002H6.57143C6.256 11.6002 6 11.869 6 12.2002C6 12.5314 6.256 12.8002 6.57143 12.8002H7.18857L7.62914 18.3494C7.70229 19.2752 8.45257 20 9.33714 20H18.6629C19.5474 20 20.2977 19.2752 20.3714 18.3494L20.8114 12.8002H21.4286C21.744 12.8002 22 12.5314 22 12.2002C22 11.869 21.744 11.6002 21.4286 11.6002ZM11.7143 17.6001C11.7143 17.9313 11.4583 18.2001 11.1429 18.2001C10.8274 18.2001 10.5714 17.9313 10.5714 17.6001V14.6002C10.5714 14.269 10.8274 14.0002 11.1429 14.0002C11.4583 14.0002 11.7143 14.269 11.7143 14.6002V17.6001ZM14.5714 17.6001C14.5714 17.9313 14.3154 18.2001 14 18.2001C13.6846 18.2001 13.4286 17.9313 13.4286 17.6001V14.6002C13.4286 14.269 13.6846 14.0002 14 14.0002C14.3154 14.0002 14.5714 14.269 14.5714 14.6002V17.6001ZM17.4286 17.6001C17.4286 17.9313 17.1726 18.2001 16.8571 18.2001C16.5417 18.2001 16.2857 17.9313 16.2857 17.6001V14.6002C16.2857 14.269 16.5417 14.0002 16.8571 14.0002C17.1726 14.0002 17.4286 14.269 17.4286 14.6002V17.6001Z" fill="black"/>
</svg>
