<svg id="Layer_1" data-name="Layer 1" xmlns="http://www.w3.org/2000/svg" viewBox="0 0 129.71 63.16"><defs><style>.cls-1,.cls-3{font-size:26.56px;}.cls-1{fill:#207567;font-family:Montserrat-Regular, Montserrat;letter-spacing:0.24em;}.cls-2,.cls-3{letter-spacing:0.1em;}.cls-3{font-family:Montserrat-Bold, Montserrat;font-weight:700;}</style></defs><path d="M234.86,114.34h0a.87.87,0,0,1-.86-.83c-.31-8.08-5.78-10.58-7.8-11.23a.87.87,0,0,1-.59-1h0a.86.86,0,0,1,1.12-.65c2.41.81,8.66,3.79,9,12.81A.86.86,0,0,1,234.86,114.34Z" transform="translate(-133.17 -91.83)"/><path d="M250.89,107.18l-4,2.48a21.47,21.47,0,0,0-41.81-2.26,30.69,30.69,0,0,0-8.69-1.74s-1.09-.09-1.62-.08-1.61.1-1.61.1a31,31,0,0,0-8.7,1.73,21.48,21.48,0,0,0-41.85,2.4l-3.86-2.62A1.55,1.55,0,0,0,137,109.8l5.25,3.52a21.56,21.56,0,0,0,2.35,9.79h2.05a19.69,19.69,0,1,1,34.18,0h2a21.56,21.56,0,0,0,2.35-9.79,21.34,21.34,0,0,0-.32-3.68,29.83,29.83,0,0,1,9.74-1.78,30.68,30.68,0,0,1,9.86,1.78,21.34,21.34,0,0,0-.33,3.68,21.56,21.56,0,0,0,2.35,9.79h2.05a19.69,19.69,0,1,1,34.18,0h2.05a21.43,21.43,0,0,0,2.35-9.79s0-.12,0-.18l5.39-3.34a1.6,1.6,0,0,0,.72-1.32A1.56,1.56,0,0,0,250.89,107.18Z" transform="translate(-133.17 -91.83)"/><text class="cls-1" transform="translate(0 56.17)">M<tspan class="cls-2" x="28.02" y="0">Y</tspan></text><text class="cls-3" transform="translate(46.83 56)">LENS</text></svg>