<svg width="163" height="95" viewBox="0 0 163 95" fill="none" xmlns="http://www.w3.org/2000/svg">
    <path d="M10.2582 48.9677C16.7082 48.9677 19.7182 44.3237 19.7182 38.7337V20.5017H12.3222V38.1317C12.3222 41.6577 11.2042 42.6037 9.22623 42.6037C8.02223 42.6037 6.64623 41.7437 5.70023 39.9377L0.712227 43.6787C2.77623 47.2477 5.70023 48.9677 10.2582 48.9677ZM25.7181 48.4517H44.2081V42.2597H33.1141V37.2717H42.2301V31.0797H33.1141V26.6937H43.7781V20.5017H25.7181V48.4517ZM51.8476 48.4517H61.0496L63.1136 37.3577C63.5436 35.2077 63.8446 32.8857 64.1456 30.8217H64.3176C64.5756 32.8857 64.9196 35.2077 65.3496 37.3577L67.4996 48.4517H76.8736L81.5176 20.5017H74.4656L72.9176 32.7137C72.6166 35.5517 72.2726 38.5187 71.9716 41.4857H71.7996C71.2836 38.5187 70.7676 35.5087 70.2516 32.7137L67.5856 20.5017H61.3936L58.7276 32.7137C58.2116 35.5947 57.6956 38.5617 57.1796 41.4857H57.0076C56.7066 38.5617 56.3626 35.6377 56.0616 32.7137L54.5136 20.5017H46.9456L51.8476 48.4517ZM85.053 48.4517H103.543V42.2597H92.449V37.2717H101.565V31.0797H92.449V26.6937H103.113V20.5017H85.053V48.4517ZM108.947 48.4517H126.921V42.2597H116.343V20.5017H108.947V48.4517Z" fill="black"/>
    <path d="M14.8747 83.9987C21.8704 83.9987 26.612 79.1017 26.612 70.7845C26.612 62.5062 21.8704 57.8035 14.8747 57.8035C7.8789 57.8035 3.13732 62.4673 3.13732 70.7845C3.13732 79.1017 7.8789 83.9987 14.8747 83.9987ZM14.8747 78.2467C11.8432 78.2467 9.97763 75.3706 9.97763 70.7845C9.97763 66.1984 11.8432 63.5555 14.8747 63.5555C17.9062 63.5555 19.7717 66.1984 19.7717 70.7845C19.7717 75.3706 17.9062 78.2467 14.8747 78.2467ZM31.1353 83.5323H37.8201V75.5261H40.5407C45.8264 75.5261 50.6457 72.8444 50.6457 66.6648C50.6457 60.2908 45.9041 58.2698 40.3852 58.2698H31.1353V83.5323ZM37.8201 70.2404V63.5555H40.0743C42.6394 63.5555 44.1163 64.4106 44.1163 66.6648C44.1163 68.919 42.8726 70.2404 40.2298 70.2404H37.8201ZM59.2207 83.5323H65.9055V63.8665H72.5904V58.2698H52.5358V63.8665H59.2207V83.5323ZM76.3391 83.5323H83.0239V58.2698H76.3391V83.5323ZM99.5963 83.9987C102.861 83.9987 105.776 82.755 107.914 80.2677L104.416 76.0702C103.327 77.2362 101.773 78.2467 99.8295 78.2467C96.5648 78.2467 94.3884 75.6038 94.3884 70.8622C94.3884 66.2761 96.9535 63.5555 99.9073 63.5555C101.617 63.5555 102.861 64.3328 104.105 65.4211L107.603 61.1459C105.815 59.3581 103.094 57.8035 99.7518 57.8035C93.3779 57.8035 87.5481 62.6228 87.5481 71.0954C87.5481 79.7235 93.1447 83.9987 99.5963 83.9987ZM118.239 83.9987C124.535 83.9987 128.11 80.1899 128.11 75.9147C128.11 72.4168 126.323 70.2404 123.175 68.9967L120.104 67.7919C117.811 66.898 116.373 66.4704 116.373 65.2656C116.373 64.1385 117.384 63.5555 119.016 63.5555C120.882 63.5555 122.358 64.1774 124.068 65.3822L127.411 61.1848C125.079 58.8917 121.892 57.8035 119.016 57.8035C113.497 57.8035 109.611 61.3402 109.611 65.6543C109.611 69.3076 111.981 71.6007 114.702 72.6889L117.85 74.0103C119.988 74.8654 121.27 75.254 121.27 76.4588C121.27 77.5859 120.415 78.2467 118.394 78.2467C116.529 78.2467 114.274 77.2362 112.487 75.7981L108.678 80.3843C111.398 82.8328 115.052 83.9987 118.239 83.9987Z" fill="#F20050"/>
</svg>
