<svg width="128" height="54" viewBox="0 0 128 54" fill="none" xmlns="http://www.w3.org/2000/svg">
    <path d="M0.0641295 0.444242H8.45745L11.6764 11.7373L15.0151 0.444242H23.5548V3.01145H22.637C22.1404 3.01145 21.7945 3.11787 21.5994 3.33069C21.4132 3.53465 21.3201 3.92483 21.3201 4.50124V15.0361C21.3201 15.4972 21.3467 15.7854 21.3999 15.9007C21.4797 16.0781 21.5906 16.2022 21.7325 16.2732C21.9276 16.3796 22.1847 16.4328 22.504 16.4328H23.5548V19H14.6294V16.4328H15.3211C15.8265 16.4328 16.168 16.3929 16.3453 16.3131C16.5227 16.2333 16.6512 16.1135 16.7311 15.9539C16.8197 15.7854 16.8641 15.4795 16.8641 15.0361V3.62333L12.3415 19H9.77431L5.39808 4.11549V15.3953C5.39808 15.6524 5.44242 15.852 5.53109 15.9938C5.62864 16.1357 5.76166 16.2466 5.93014 16.3264C6.1075 16.3973 6.38683 16.4328 6.76815 16.4328H7.65935V19H0.0641295V16.4328H0.80902C1.27901 16.4328 1.59825 16.3929 1.76674 16.3131C1.94409 16.2244 2.07267 16.0914 2.15248 15.914C2.24116 15.7278 2.2855 15.3908 2.2855 14.9031V4.50124C2.2855 4.02238 2.25446 3.71201 2.19239 3.57012C2.11258 3.37503 1.99286 3.23315 1.83324 3.14447C1.67363 3.05579 1.42089 3.01145 1.07505 3.01145H0.0641295V0.444242ZM35.5928 0.125003C38.5368 0.125003 40.9178 1.02065 42.7357 2.81193C44.5625 4.60322 45.4759 6.9044 45.4759 9.71547C45.4759 11.6043 45.0591 13.2803 44.2255 14.7435C43.3919 16.2067 42.2391 17.3373 40.7671 18.1354C39.3039 18.9246 37.5348 19.3192 35.4597 19.3192C32.7196 19.3192 30.4761 18.5655 28.7291 17.058C26.6186 15.2401 25.5633 12.8103 25.5633 9.76868C25.5633 6.93987 26.4856 4.62538 28.3301 2.82523C30.1834 1.02508 32.6043 0.125003 35.5928 0.125003ZM35.646 3.07796C34.236 3.07796 33.1142 3.60559 32.2806 4.66086C31.2343 5.99102 30.7111 7.70693 30.7111 9.80858C30.7111 11.9102 31.1988 13.5729 32.1742 14.7967C33.0167 15.8431 34.1296 16.3663 35.5129 16.3663C36.9052 16.3663 38.0181 15.8431 38.8516 14.7967C39.836 13.5463 40.3281 11.8748 40.3281 9.78198C40.3281 8.30993 40.1153 7.07288 39.6897 6.07083C39.2729 5.06877 38.7053 4.31945 37.987 3.82285C37.2688 3.32626 36.4884 3.07796 35.646 3.07796ZM47.4179 0.444242H57.1414C59.3494 0.444242 61.1053 0.794518 62.4088 1.49507C63.7124 2.19562 64.7499 3.23315 65.5214 4.60765C66.3018 5.98215 66.6919 7.63155 66.6919 9.55585C66.6919 10.8949 66.4924 12.092 66.0934 13.1473C65.7032 14.2025 65.1179 15.1558 64.3375 16.0071C63.5572 16.8496 62.7192 17.4836 61.8235 17.9093C61.1496 18.2285 60.1919 18.4901 58.9504 18.6941C57.7178 18.898 56.729 19 55.9841 19H47.4179V16.4328H48.0564C48.5973 16.4328 48.952 16.3884 49.1205 16.2998C49.289 16.2111 49.4264 16.0603 49.5328 15.8475C49.6038 15.679 49.6393 15.311 49.6393 14.7435V4.60765C49.6393 4.04011 49.5994 3.67654 49.5195 3.51692C49.4486 3.34843 49.3245 3.22428 49.1471 3.14447C48.9786 3.05579 48.615 3.01145 48.0564 3.01145H47.4179V0.444242ZM54.2017 3.4238V14.9563C54.2017 15.3465 54.2239 15.5859 54.2682 15.6746C54.3392 15.8076 54.4411 15.9007 54.5742 15.9539C54.716 15.9983 55.0486 16.0204 55.5718 16.0204C57.0261 16.0204 58.1612 15.7987 58.977 15.3554C59.8017 14.9031 60.4668 14.1848 60.9722 13.2005C61.4777 12.2073 61.7304 11.0279 61.7304 9.66226C61.7304 8.31437 61.491 7.14382 61.0121 6.15064C60.5422 5.14858 59.9569 4.4436 59.2563 4.03568C58.5558 3.62776 57.5537 3.4238 56.2502 3.4238H54.2017ZM68.7005 0.444242H84.1836L86.2985 6.31026L83.8909 7.17486C83.483 6.21714 83.0042 5.44565 82.4544 4.86038C81.9134 4.27511 81.3104 3.88936 80.6453 3.70314C79.9891 3.50805 79.2221 3.4105 78.3442 3.4105H75.5109V8.03947H76.442C77.1426 8.03947 77.6126 7.99069 77.852 7.89315C78.1003 7.78674 78.2776 7.62712 78.3841 7.41429C78.4905 7.1926 78.5437 6.75808 78.5437 6.11073V5.40575H80.9114V13.2537H78.5437V12.4556C78.5437 11.9147 78.4772 11.5201 78.3442 11.2718C78.22 11.0235 78.0471 10.855 77.8254 10.7663C77.6037 10.6776 77.1115 10.6333 76.3489 10.6333H75.5109V14.8898C75.5109 15.3421 75.5331 15.617 75.5774 15.7145C75.6218 15.812 75.706 15.8874 75.8301 15.9406C75.9632 15.9938 76.2425 16.0204 76.6682 16.0204H78.2244C79.3861 16.0204 80.366 15.8564 81.1641 15.5283C81.9622 15.1913 82.6716 14.6548 83.2924 13.9188C83.922 13.1739 84.4053 12.2916 84.7422 11.2718L87.1764 12.1098L84.7422 19H68.7005V16.4328H69.166C69.7868 16.4328 70.2036 16.3884 70.4164 16.2998C70.6292 16.2111 70.78 16.0559 70.8686 15.8342C70.913 15.7012 70.9352 15.3243 70.9352 14.7036V4.59435C70.9352 4.04455 70.8952 3.6854 70.8154 3.51692C70.7445 3.34843 70.6292 3.22428 70.4696 3.14447C70.31 3.05579 69.9952 3.01145 69.5252 3.01145H68.7005V0.444242ZM88.2805 0.444242H99.7199C100.456 0.444242 101.258 0.51075 102.127 0.643767C103.005 0.776783 103.795 1.06942 104.495 1.52167C105.205 1.97393 105.754 2.5459 106.145 3.23758C106.535 3.92927 106.73 4.70963 106.73 5.57867C106.73 6.98864 106.224 8.13258 105.213 9.01048C104.211 9.87952 103.023 10.4471 101.649 10.7131L105.466 15.1558L105.626 15.3554C105.874 15.6569 106.1 15.883 106.304 16.0337C106.508 16.1756 106.712 16.2776 106.916 16.3397C107.12 16.4018 107.404 16.4328 107.767 16.4328H108.565V19H102.62L96.6605 11.0057H95.1175V14.7036C95.1175 15.3421 95.153 15.75 95.2239 15.9273C95.2948 16.0958 95.4057 16.2244 95.5564 16.3131C95.7161 16.3929 96.0309 16.4328 96.5009 16.4328H97.3522V19H88.2805V16.4328H89.1052C89.5397 16.4328 89.8456 16.3884 90.023 16.2998C90.2092 16.2022 90.3466 16.0603 90.4353 15.8741C90.4797 15.7677 90.5018 15.4352 90.5018 14.8765V4.43473C90.5018 4.02681 90.4664 3.73861 90.3954 3.57012C90.3333 3.39277 90.2269 3.27749 90.0762 3.22428C89.8634 3.12674 89.6195 3.07796 89.3446 3.07796L88.9721 3.09126H88.2805V0.444242ZM95.1175 3.49031V8.2922H97.8709C98.9528 8.2922 99.7598 8.19465 100.292 7.99956C100.833 7.7956 101.236 7.5074 101.502 7.13496C101.777 6.76251 101.915 6.31026 101.915 5.77819C101.915 5.29047 101.786 4.87368 101.529 4.52784C101.281 4.17313 100.921 3.91153 100.451 3.74304C99.9903 3.57456 99.2321 3.49031 98.1769 3.49031H95.1175ZM109.59 0.444242H117.132L122.572 11.2718V4.64755C122.572 4.08002 122.541 3.72531 122.479 3.58342C122.39 3.3706 122.271 3.22428 122.12 3.14447C121.969 3.05579 121.676 3.01145 121.242 3.01145H120.337V0.444242H127.999V3.01145H127.148C126.722 3.01145 126.416 3.06023 126.23 3.15777C126.053 3.25532 125.928 3.38833 125.858 3.55682C125.787 3.72531 125.751 4.08889 125.751 4.64755V19H121.934L115.043 5.32594V14.8898C115.043 15.4396 115.074 15.7899 115.136 15.9406C115.207 16.0914 115.327 16.2111 115.496 16.2998C115.673 16.3884 115.974 16.4328 116.4 16.4328H117.291V19H109.59V16.4328H110.388C110.831 16.4328 111.133 16.3973 111.292 16.3264C111.461 16.2466 111.594 16.1135 111.691 15.9273C111.789 15.7411 111.838 15.4618 111.838 15.0893V4.44803C111.838 4.04011 111.793 3.74304 111.705 3.55682C111.616 3.36173 111.496 3.22428 111.345 3.14447C111.195 3.05579 110.942 3.01145 110.587 3.01145H109.59V0.444242Z" fill="black"/>
    <path d="M12.0469 30.5594C15.5471 30.5594 18.3779 31.6243 20.5392 33.7539C22.711 35.8836 23.7969 38.6195 23.7969 41.9616C23.7969 44.2072 23.3014 46.1998 22.3104 47.9394C21.3193 49.679 19.9488 51.0232 18.1986 51.9721C16.4591 52.9104 14.3557 53.3795 11.8887 53.3795C8.63095 53.3795 5.96359 52.4834 3.88664 50.6911C1.37743 48.5298 0.12282 45.641 0.12282 42.0248C0.12282 38.6616 1.21928 35.9099 3.41221 33.7697C5.61568 31.6295 8.49389 30.5594 12.0469 30.5594ZM12.1101 34.0702C10.4338 34.0702 9.10011 34.6975 8.10907 35.9521C6.86501 37.5336 6.24298 39.5736 6.24298 42.0723C6.24298 44.5709 6.82284 46.5477 7.98256 48.0027C8.98414 49.2467 10.3073 49.8688 11.952 49.8688C13.6072 49.8688 14.9303 49.2467 15.9214 48.0027C17.0916 46.5161 17.6768 44.5288 17.6768 42.0406C17.6768 40.2905 17.4237 38.8198 16.9177 37.6284C16.4222 36.4371 15.7474 35.5462 14.8934 34.9558C14.0395 34.3654 13.1117 34.0702 12.1101 34.0702ZM26.2007 30.939H37.8559C39.3319 30.939 40.5549 31.0918 41.5248 31.3976C42.5053 31.6928 43.3435 32.1461 44.0393 32.7576C44.7457 33.3691 45.2886 34.0966 45.6682 34.94C46.0477 35.7729 46.2375 36.6585 46.2375 37.5968C46.2375 39.484 45.51 41.0654 44.0551 42.3411C42.6107 43.6168 40.6129 44.2547 38.0615 44.2547H34.2977V48.3822C34.2977 48.8988 34.3346 49.2256 34.4084 49.3627C34.5032 49.563 34.6456 49.7106 34.8353 49.8055C35.0357 49.9004 35.3678 49.9478 35.8317 49.9478H36.9545V53H26.2007V49.9478H26.944C27.5976 49.9478 28.0299 49.9004 28.2408 49.8055C28.4516 49.7106 28.6045 49.563 28.6994 49.3627C28.7943 49.1518 28.8417 48.7249 28.8417 48.0817V35.9521C28.8417 35.2774 28.7995 34.8346 28.7152 34.6237C28.6308 34.4023 28.4938 34.2442 28.304 34.1493C28.1248 34.0438 27.7769 33.9911 27.2603 33.9911H26.2007V30.939ZM34.2977 34.5446V40.8071H36.1796C37.3287 40.8071 38.1722 40.6912 38.7099 40.4592C39.2476 40.2167 39.6798 39.853 40.0066 39.368C40.3335 38.8725 40.4969 38.2874 40.4969 37.6126C40.4969 36.6005 40.1068 35.7992 39.3266 35.2088C38.7468 34.766 37.8875 34.5446 36.7489 34.5446H34.2977ZM49.0525 30.1957H51.14L51.3614 30.939H63.8073L64.0761 30.1957H66.1794L68.9153 37.9289L65.9738 38.9568C65.3202 37.6706 64.851 36.8324 64.5664 36.4424C64.0076 35.6727 63.3645 35.0665 62.637 34.6237C62.0888 34.2863 61.5458 34.1176 61.0081 34.1176C60.7551 34.1176 60.5811 34.1809 60.4862 34.3074C60.3914 34.4234 60.3439 34.6975 60.3439 35.1298V47.8129C60.3439 48.5614 60.3703 49.0306 60.423 49.2204C60.4757 49.4101 60.5653 49.563 60.6918 49.679C60.8184 49.7844 60.9923 49.8582 61.2137 49.9004C61.4351 49.932 62.0255 49.9478 62.9849 49.9478V53H52.2312V49.9478H52.8795C53.5965 49.9478 54.0551 49.9057 54.2554 49.8213C54.4557 49.7264 54.6086 49.5683 54.714 49.3469C54.8194 49.1149 54.8721 48.6405 54.8721 47.9236V34.9558C54.8721 34.5868 54.83 34.3549 54.7456 34.26C54.6613 34.1651 54.4821 34.1176 54.2079 34.1176C53.6597 34.1176 53.0482 34.3232 52.3735 34.7344C51.6987 35.1456 51.0978 35.7254 50.5706 36.474C50.3598 36.7692 49.9117 37.5968 49.2264 38.9568L46.3324 37.9289L49.0525 30.1957ZM70.0698 30.939H80.8235V33.9911H79.843C79.2737 33.9911 78.8942 34.0438 78.7044 34.1493C78.5252 34.2442 78.3881 34.4023 78.2932 34.6237C78.2089 34.8346 78.1667 35.2457 78.1667 35.8572V48.0659C78.1667 48.7301 78.2036 49.1571 78.2774 49.3469C78.3512 49.5367 78.4777 49.6737 78.657 49.7581C78.8784 49.8846 79.2105 49.9478 79.6533 49.9478H80.8235V53H70.0698V49.9478H70.9395C71.5616 49.9478 71.9675 49.9057 72.1572 49.8213C72.347 49.7264 72.4841 49.5841 72.5684 49.3943C72.6633 49.194 72.7107 48.8039 72.7107 48.2241V35.9679C72.7107 35.2826 72.6633 34.8346 72.5684 34.6237C72.4841 34.4023 72.3365 34.2336 72.1256 34.1176C71.978 34.0333 71.6196 33.9911 71.0502 33.9911H70.0698V30.939ZM100.164 30.939H102.41L104.577 38.862L101.635 39.7159C100.655 37.8288 99.7322 36.4898 98.8677 35.6991C97.6658 34.6132 96.3638 34.0702 94.9616 34.0702C93.9389 34.0702 92.9795 34.3549 92.0833 34.9242C91.1977 35.4935 90.4914 36.3317 89.9642 37.4387C89.4476 38.5457 89.1893 39.8424 89.1893 41.329C89.1893 43.5957 89.785 45.5462 90.9763 47.1803C92.1782 48.8145 93.7491 49.6315 95.689 49.6315C96.9225 49.6315 98.1086 49.2784 99.2473 48.572C100.671 47.6969 101.899 46.5214 102.932 45.0454L105.383 46.864C103.791 49.0359 102.336 50.5488 101.018 51.4027C98.9837 52.7206 96.717 53.3795 94.2183 53.3795C92.1413 53.3795 90.2594 52.884 88.5726 51.893C86.8962 50.8914 85.5573 49.4945 84.5557 47.7022C83.5541 45.9099 83.0533 43.9542 83.0533 41.8351C83.0533 39.7265 83.5383 37.8077 84.5083 36.0786C85.4888 34.3391 86.8172 32.9843 88.4935 32.0143C90.1804 31.0444 92.057 30.5594 94.1234 30.5594C96.2214 30.5594 98.0612 31.0022 99.6426 31.8878L100.164 30.939ZM123.76 30.939L125.657 38.3401L122.716 39.1782C121.735 37.4176 120.623 36.1313 119.379 35.3195C118.135 34.4972 116.812 34.086 115.41 34.086C114.503 34.086 113.786 34.2705 113.259 34.6395C112.742 35.0085 112.484 35.4197 112.484 35.873C112.484 36.3896 112.721 36.8693 113.196 37.3122C113.659 37.755 114.513 38.1503 115.757 38.4982L119.996 39.7317C122.347 40.4065 124.023 41.3026 125.025 42.4202C126.016 43.5483 126.511 44.8609 126.511 46.358C126.511 48.2662 125.752 49.8793 124.234 51.1972C122.537 52.6521 120.428 53.3795 117.908 53.3795C116.738 53.3795 115.663 53.2319 114.682 52.9367C113.702 52.631 112.679 52.1249 111.614 51.4186L110.918 53H108.562L106.996 44.4444L109.954 43.7328C110.649 45.4724 111.73 46.9273 113.196 48.0975C114.672 49.2573 116.29 49.8371 118.051 49.8371C118.841 49.8371 119.495 49.737 120.012 49.5367C120.539 49.3363 120.934 49.057 121.198 48.6985C121.461 48.34 121.593 47.971 121.593 47.5915C121.593 46.9589 121.287 46.416 120.676 45.9626C120.054 45.5093 118.968 45.0612 117.418 44.6184L113.733 43.543C113.174 43.3849 112.415 43.0897 111.456 42.6574C110.507 42.2146 109.774 41.756 109.258 41.2816C108.752 40.8071 108.33 40.2009 107.993 39.4629C107.655 38.7144 107.487 37.9289 107.487 37.1066C107.487 35.9363 107.808 34.8609 108.451 33.8804C109.105 32.8894 110.08 32.0881 111.377 31.4767C112.684 30.8652 114.129 30.5594 115.71 30.5594C117.618 30.5594 119.342 31.0549 120.881 32.046L121.498 30.939H123.76Z" fill="#00BF7E"/>
</svg>
