<?xml version="1.0" encoding="utf-8"?>
<!-- Generator: Adobe Illustrator 26.0.1, SVG Export Plug-In . SVG Version: 6.00 Build 0)  -->
<svg version="1.1" id="Layer_1" xmlns="http://www.w3.org/2000/svg" xmlns:xlink="http://www.w3.org/1999/xlink" x="0px" y="0px"
	 viewBox="0 0 1080 1080" style="enable-background:new 0 0 1080 1080;" xml:space="preserve">
<style type="text/css">
	.st0{fill:#BDBCBC;}
	.st1{fill:#455A64;}
	.st2{fill:#9D9D9D;}
	.st3{fill:#F4F5F5;}
	.st4{fill:#E0E0E0;}
</style>
<g>
	<polygon class="st0" points="317.17,324.73 327.55,387.08 410.7,387.08 410.7,636.5 473.05,636.5 473.05,387.08 535.4,387.08 
		535.4,636.5 597.77,636.5 597.77,387.08 660.11,387.08 660.11,636.5 722.46,636.5 722.46,387.08 804.41,387.08 762.82,636.5 
		826.02,636.5 877.96,324.73 	"/>
	<path class="st1" d="M488.63,776.76c0,25.85-20.94,46.78-46.76,46.78c-25.81,0-46.76-20.93-46.76-46.78
		c0-25.81,20.95-46.76,46.76-46.76C467.7,730,488.63,750.95,488.63,776.76z"/>
	<path class="st1" d="M738.04,776.76c0,25.85-20.94,46.78-46.77,46.78c-25.81,0-46.76-20.93-46.76-46.78
		c0-25.81,20.95-46.76,46.76-46.76C717.1,730,738.04,750.95,738.04,776.76z"/>
	<polygon class="st2" points="769.06,599.09 762.82,636.5 826.02,636.5 832.26,599.09 	"/>
	<polygon class="st1" points="369.11,636.5 286,137.71 130.14,137.71 130.14,200.05 233.18,200.05 316.32,698.85 815.62,698.85 
		826.02,636.5 	"/>
	<polygon class="st2" points="355.09,324.73 317.17,324.73 327.55,387.08 365.48,387.08 	"/>
	<rect x="660.11" y="387.08" class="st2" width="62.35" height="37.41"/>
	<rect x="535.4" y="387.08" class="st2" width="62.38" height="37.41"/>
	<rect x="410.7" y="387.08" class="st2" width="62.35" height="37.41"/>
	<rect x="597.77" y="387.08" class="st3" width="62.34" height="249.42"/>
	<polygon class="st3" points="722.46,387.08 722.46,636.5 762.82,636.5 804.41,387.08 	"/>
	<polygon class="st4" points="722.46,424.49 798.17,424.49 804.41,387.08 722.46,387.08 	"/>
	<polygon class="st3" points="327.55,387.08 369.11,636.5 410.7,636.5 410.7,387.08 	"/>
	<polygon class="st4" points="333.79,424.49 410.7,424.49 410.7,387.08 327.55,387.08 	"/>
	<rect x="473.05" y="387.08" class="st3" width="62.35" height="249.42"/>
	<rect x="597.77" y="387.08" class="st4" width="62.34" height="37.41"/>
	<rect x="473.05" y="387.08" class="st4" width="62.35" height="37.41"/>
	<rect x="660.11" y="599.09" class="st2" width="62.35" height="37.41"/>
	<polygon class="st4" points="722.46,599.09 722.46,636.5 762.82,636.5 769.06,599.09 	"/>
	<rect x="535.4" y="599.09" class="st2" width="62.38" height="37.41"/>
	<rect x="410.7" y="599.09" class="st2" width="62.35" height="37.41"/>
	<polygon class="st4" points="369.11,636.5 410.7,636.5 410.7,599.09 362.88,599.09 	"/>
	<rect x="597.77" y="599.09" class="st4" width="62.34" height="37.41"/>
	<rect x="473.05" y="599.09" class="st4" width="62.35" height="37.41"/>
</g>
</svg>
