<?xml version="1.0" encoding="utf-8"?>
<!-- Generator: Adobe Illustrator 26.0.1, SVG Export Plug-In . SVG Version: 6.00 Build 0)  -->
<svg version="1.1" xmlns="http://www.w3.org/2000/svg" xmlns:xlink="http://www.w3.org/1999/xlink" x="0px" y="0px"
	 viewBox="0 0 1920 1080" style="enable-background:new 0 0 1920 1080;" xml:space="preserve">
<style type="text/css">
	.st0{fill:url(#SVGID_1_);}
	.st1{fill:url(#SVGID_00000073681673256526373850000003236371420223416448_);}
	.st2{fill:#D37A85;}
	.st3{fill:#363344;}
	.st4{fill:url(#SVGID_00000061446973580500444420000017597274058199281590_);}
	.st5{fill:#FFB655;}
	.st6{fill:url(#SVGID_00000154397267242954384910000014145168485946501264_);}
	.st7{fill:#E7DEE8;}
	.st8{fill:#C5BBC7;}
	.st9{fill:url(#SVGID_00000155139834511266582820000009969546442590888880_);}
	.st10{fill:url(#SVGID_00000119078892283132044660000005368775713597873840_);}
	.st11{fill:#ECEAED;}
	.st12{fill:#2D2C3A;}
	.st13{fill:#FFB7A7;}
	.st14{fill:url(#SVGID_00000111182376050640062000000001689154188683031727_);}
	.st15{fill:#FC9642;}
	.st16{fill:#FFD68D;}
	.st17{fill:#985D3F;}
	.st18{fill:#B37047;}
	.st19{fill:url(#SVGID_00000154428086318578020490000002436724304116686236_);}
	.st20{fill:#4B3C59;}
	.st21{fill:#FFF4E9;}
	.st22{fill:#D27A84;}
	.st23{fill:#CC9767;}
	.st24{fill:#E8BC8B;}
	.st25{fill:#DEB07C;}
	.st26{fill:#C78F63;}
	.st27{fill:#AD7A52;}
	.st28{fill:#F8E0CC;}
	.st29{fill:#F8F7F5;}
	.st30{fill:#CFA893;}
	.st31{fill:#D7B49D;}
	.st32{fill:#A3714E;}
	.st33{fill:#626376;}
	.st34{fill:#A5ADBC;}
	.st35{fill:#F6F0F7;}
	.st36{fill:#FFFFFF;}
	.st37{fill:#BF3054;}
	.st38{fill:#D94167;}
	.st39{fill:#35847A;}
	.st40{fill:#2A7069;}
	.st41{fill:#AA9EAD;}
	.st42{fill:#DACFDC;}
	.st43{fill:#BEB1C2;}
	.st44{fill:#474557;}
	.st45{fill:#3F3E4F;}
	.st46{fill:url(#SVGID_00000062871411237415754080000017936293968436630426_);}
	.st47{fill:#AF254D;}
	.st48{fill:#80545A;}
	.st49{fill:url(#SVGID_00000061444886347351972050000007824395348699228840_);}
	.st50{fill:#634A64;}
	.st51{fill:#EFBA73;}
	.st52{fill:#E2A561;}
	.st53{fill:#D6985B;}
	.st54{fill:#D4C8D6;}
	.st55{fill:url(#SVGID_00000103257184324852839520000005563743386358934691_);}
</style>
<g id="Layer_8">
</g>
<g id="Layer_15">
</g>
<g id="Layer_7">
</g>
<g id="Layer_6">
</g>
<g id="Layer_5">
</g>
<g id="Layer_4">
</g>
<g id="Layer_9">
</g>
<g id="Layer_10">
</g>
<g id="Layer_13">
</g>
<g id="Layer_3">
</g>
<g id="Layer_14">
</g>
<g id="Layer_12">
</g>
<g id="Layer_11">
</g>
<g id="Layer_2">
	<g>
		<g>
			<linearGradient id="SVGID_1_" gradientUnits="userSpaceOnUse" x1="1517.0917" y1="639.4144" x2="1457.3264" y2="535.4">
				<stop  offset="0" style="stop-color:#FF9595"/>
				<stop  offset="0.131" style="stop-color:#FFA39C"/>
				<stop  offset="0.3346" style="stop-color:#FFB2A4"/>
				<stop  offset="0.5" style="stop-color:#FFB7A7"/>
				<stop  offset="0.6696" style="stop-color:#FFB0A3"/>
				<stop  offset="0.9092" style="stop-color:#FF9E9A"/>
				<stop  offset="1" style="stop-color:#FF9595"/>
			</linearGradient>
			<path class="st0" d="M1508.95,614.35c0,0-6.14,4.76-13.67,11.21c0,0,2.85,3.64,7.16,12.26c2.79,5.57,7.2,2.42,14.65,0.48
				c4.41-1.15,9.29-5.65,8.15-8.71C1523.93,626.09,1516.51,623.06,1508.95,614.35z"/>
			
				<linearGradient id="SVGID_00000111164150006867501170000011441561489700228014_" gradientUnits="userSpaceOnUse" x1="1352.4834" y1="951.702" x2="1346.1055" y2="912.3717" gradientTransform="matrix(1 0 0.0265 1 -13.866 0)">
				<stop  offset="0" style="stop-color:#FFB7A7"/>
				<stop  offset="1" style="stop-color:#FF9595"/>
			</linearGradient>
			<path style="fill:url(#SVGID_00000111164150006867501170000011441561489700228014_);" d="M1363.67,911.16
				c1.78,7.52,4.83,13.25,2.39,19.64c-2.6,6.83-24.79,9.28-24.97,13.3c-0.23,5.11,21.23,1.46,30,1.46c8.77,0,9.71,1.23,11.02-1.28
				c1.91-3.68,0.27-8.37-3.35-17.78c-1.53-3.98-2.74-9.54-2.95-17.68L1363.67,911.16z"/>
			<path class="st2" d="M1382.11,944.28c1.91-3.68,0.27-8.37-3.35-17.78c-1.47-3.84-2.65-9.16-2.92-16.84l-11.15,4.66l0.21,1.37
				c0.93,3.16,1.82,6.05,2.02,8.91c1.45,0.08,4.45,0.53,7.52-0.74c0,0,0.52,2.96,1.8,6.03c1.32,3.15,5.25,6.99,3.73,11.51
				c-1.04,3.07-10.89,1.05-15.62,1.78c-1.53,0.24-1.94,1.4-1.81,2.88c3.29-0.27,6.32-0.5,8.54-0.5
				C1379.86,945.56,1380.81,946.79,1382.11,944.28z"/>
			<g>
				<path class="st3" d="M1384.31,944.55h-22.2c-0.91,0-1.62,0.74-1.6,1.64c0.02,0.91,0.78,1.64,1.69,1.64h22.2
					c0.91,0,1.62-0.74,1.6-1.64C1385.97,945.29,1385.22,944.55,1384.31,944.55z"/>
				<path class="st3" d="M1338.56,945.1c-0.16-6.16,12.68-7.54,21.47-12.06c1.77-0.27,7.93,4.66,8.2,14.8c0,0-20.55,0-25.21,0
					C1338.36,947.84,1338.56,945.1,1338.56,945.1z"/>
			</g>
			
				<linearGradient id="SVGID_00000145020465247244554010000017029943601369185466_" gradientUnits="userSpaceOnUse" x1="1389.6387" y1="951.5193" x2="1383.218" y2="911.9255" gradientTransform="matrix(1 0 0.0265 1 -13.866 0)">
				<stop  offset="0" style="stop-color:#FFB7A7"/>
				<stop  offset="1" style="stop-color:#FF9595"/>
			</linearGradient>
			<path style="fill:url(#SVGID_00000145020465247244554010000017029943601369185466_);" d="M1403.31,909.93
				c0.57,7.67,2.67,13.8-0.76,19.68c-3.67,6.3-25.38,10.45-25.56,14.48c-0.23,5.11,21.23,1.46,30,1.46c8.77,0,9.71,1.23,11.02-1.28
				c1.91-3.68-0.1-7.03-2.18-16.86c-0.88-4.15-1.19-9.82-0.1-17.85L1403.31,909.93z"/>
			<path class="st2" d="M1418.01,944.28c1.91-3.68-0.1-7.03-2.18-16.86c-0.71-3.34-1.05-7.66-0.59-13.39l-11.42,0.61
				c0.26,2.06,0.53,4,0.62,5.88c1.52,0.47,4.52,1.21,7.77,1.02c0,0,0.05,5.48,1.01,10.69c0.96,5.21,2.28,10.14-4.56,10.69
				c-6.84,0.55-13.69,0.27-13.69,0.27l1.45,3.04c4.05-0.33,7.9-0.67,10.57-0.67C1415.76,945.56,1416.7,946.79,1418.01,944.28z"/>
			<path class="st5" d="M1333.18,422.45c-13.15,7.31-19,24.03-31.06,44.13c-12.06,20.09-17.54,23.75-24.84,33.25
				c-7.31,9.5-13.52,46.95,10.41,41.65c28.69-6.35,45.49-35.07,47.68-41.28C1337.57,493.98,1333.18,422.45,1333.18,422.45z"/>
			
				<linearGradient id="SVGID_00000081632520821396137410000006500834589317334681_" gradientUnits="userSpaceOnUse" x1="1511.5688" y1="641.4573" x2="1456.23" y2="545.1465">
				<stop  offset="0" style="stop-color:#FF9595"/>
				<stop  offset="0.131" style="stop-color:#FFA39C"/>
				<stop  offset="0.3346" style="stop-color:#FFB2A4"/>
				<stop  offset="0.5" style="stop-color:#FFB7A7"/>
				<stop  offset="0.6696" style="stop-color:#FFB0A3"/>
				<stop  offset="0.9092" style="stop-color:#FF9E9A"/>
				<stop  offset="1" style="stop-color:#FF9595"/>
			</linearGradient>
			<path style="fill:url(#SVGID_00000081632520821396137410000006500834589317334681_);" d="M1469.09,536.73
				c11.33,25.57,21.85,50.04,39.85,77.62l-13.41,11.49c0,0-37.4-40.52-53.48-75.96L1469.09,536.73z"/>
			<path class="st7" d="M1313.49,587.51c0,0-12.97,62.11-0.34,152.72c10.91,78.26,47.05,180.03,47.05,180.03s11.64,1.55,22.59-5.75
				c0,0-1.76-59.74-6.03-83.12c-4.27-23.38-11.13-40.19-13.67-53.34c-2.54-13.15,13.04-101.75,13.04-101.75s1.41,67.22,4.71,108.88
				c2.89,36.51,13.28,101.57,16.96,130.07c0,0,11.55,8.4,24.84,0c0,0,5.55-52.61,6.26-81.11s-2.64-44.57-5.43-67.23
				c-2.79-22.65,20.06-91.7,23.58-124.59c3.02-28.3-6.85-60.12-4.96-55.53L1313.49,587.51z"/>
			<path class="st8" d="M1313.14,740.23c10.91,78.26,47.05,180.03,47.05,180.03s11.94,5.94,22.59-5.75c0,0-1.76-59.74-6.03-83.12
				c-4.27-23.38-11.13-40.19-13.67-53.34c-2.54-13.15,13.04-101.75,13.04-101.75l-1.27-20.46l8.98-5.85l-14.33-2.92l-0.35-40.92
				l-43.39-18.7l-12.28,0.07C1313.49,587.51,1300.51,649.62,1313.14,740.23z"/>
			
				<linearGradient id="SVGID_00000155104125627759952100000017492345433808897448_" gradientUnits="userSpaceOnUse" x1="1380.3134" y1="437.8987" x2="1380.3134" y2="376.3633">
				<stop  offset="0" style="stop-color:#FFB7A7"/>
				<stop  offset="1" style="stop-color:#FF9595"/>
			</linearGradient>
			<path style="fill:url(#SVGID_00000155104125627759952100000017492345433808897448_);" d="M1401.42,370.43
				c0,0-32.19,10.21-38.97,21.42c13.85,11.15-4.42,22.48-15.38,25.77c0,0-0.16,25.82,25.57,26.85
				c25.73,1.03,40.92-27.58,40.92-27.58c-10.96-2.56-18.5-9.37-20.6-16.93C1389.67,388.06,1396.37,378.7,1401.42,370.43z"/>
			<path class="st2" d="M1362.72,409.04c4.41,7.8,19.34,28.66,46.77,14.14c2.67-3.65,4.07-6.29,4.07-6.29
				c-10.96-2.56-18.5-9.37-20.6-16.93c-3.29-11.9,3.4-21.25,8.45-29.53c0,0-32.19,10.21-38.97,21.42
				C1370.06,397.98,1367.97,404.17,1362.72,409.04z"/>
			<path class="st2" d="M1511.98,629.57c-5.75-1.37-12.33-4.52-15.34-6.44c-3.01-1.92-14.93-16.08-23.15-28.68
				c-8.22-12.6-17.17-32.52-17.17-32.52c11.69-6.21,16.08-17.72,16.08-17.72l-0.16-0.42c-0.77-1.74-1.54-3.48-2.31-5.23l-20.51,7.74
				l-7.34,3.57c15.29,33.7,49.86,72,53.22,75.67c0,0,2.85,3.64,7.16,12.26c2.79,5.57,7.2,2.42,14.65,0.48
				c0.58-0.15,1.17-0.36,1.76-0.62L1511.98,629.57z"/>
			<path class="st5" d="M1430,422.01c17.17,6.58,23.75,74.53,45.12,118.37c0,0-8.22,14.8-32.33,19.73c0,0-19.73-29.59-26.31-65.22
				C1410.79,464.03,1430,422.01,1430,422.01z"/>
			
				<linearGradient id="SVGID_00000033344717892466332260000016046362640079433135_" gradientUnits="userSpaceOnUse" x1="1226.2345" y1="425.5435" x2="1290.5369" y2="545.3796">
				<stop  offset="0" style="stop-color:#FFB7A7"/>
				<stop  offset="1" style="stop-color:#FF9595"/>
			</linearGradient>
			<path style="fill:url(#SVGID_00000033344717892466332260000016046362640079433135_);" d="M1236.73,417.62
				c8.4,6.94,18.27,31.06,27.04,48.23c8.77,17.17,15.16,24.11,23.93,37.27c8.77,13.15,10.78,31.05,0.91,36.54
				c-9.86,5.48-22.65-1.83-34.34-24.48c-11.69-22.65-17.35-65.4-23.57-76.72L1236.73,417.62z"/>
			<path class="st5" d="M1446.94,605.05c-5.29-37.27-26.08-65.22-26.45-82.2c-0.43-19.73,5.71-27.64,10.24-52.06
				c2.74-14.8,10.58-42.8-0.73-48.77c-13.15-6.94-17-6.03-17-6.03s-15.69,24.66-40.36,24.11c-24.66-0.55-24.11-23.67-24.11-23.67
				s-8.75,2.42-15.34,6.03c0,0-13.08,32.31-12.6,49.97c0.48,17.81,15.63,40.41,15.89,50.42c0.55,20.83-14.25,19.36-26.85,82.2
				C1328.92,623.68,1427.04,617.65,1446.94,605.05z"/>
			<g>
				<path class="st3" d="M1420.21,944.55h-22.2c-0.91,0-1.62,0.74-1.6,1.64c0.02,0.91,0.78,1.64,1.69,1.64h22.2
					c0.91,0,1.62-0.74,1.6-1.64C1421.87,945.29,1421.11,944.55,1420.21,944.55z"/>
				<path class="st3" d="M1374.46,945.1c-0.16-6.16,12.68-7.54,21.47-12.06c1.77-0.27,7.93,4.66,8.2,14.8c0,0-20.55,0-25.21,0
					C1374.26,947.84,1374.46,945.1,1374.46,945.1z"/>
			</g>
			<g>
				<path class="st8" d="M1489.67,648l6.1-20.71c0.41-1.41,1.89-2.21,3.3-1.8l45.48,13.22c1.41,0.41,2.21,1.89,1.8,3.3l-6.1,20.71
					c-0.41,1.41-1.89,2.21-3.3,1.8l-45.48-13.22C1490.06,650.89,1489.26,649.41,1489.67,648z"/>
				<path class="st11" d="M1490.83,647.73l5.76-19.58c0.35-1.18,1.58-1.85,2.75-1.5l44.35,12.89c1.18,0.35,1.85,1.58,1.5,2.75
					l-5.76,19.58c-0.35,1.17-1.58,1.85-2.75,1.5l-44.35-12.89C1491.15,650.14,1490.48,648.9,1490.83,647.73z"/>
				<polygon class="st3" points="1495.03,650.31 1501.52,628.26 1540.98,639.72 1534.49,661.76 				"/>
				<path class="st12" d="M1540.98,639.72l-39.46-11.45l-6.49,22.04l39.46,11.45L1540.98,639.72z M1496.05,649.83l6.07-20.61
					l37.85,10.98l-6.07,20.61L1496.05,649.83z"/>
				<path class="st12" d="M1539.56,652.67c-0.62-0.18-0.97-0.83-0.79-1.45c0.18-0.62,0.83-0.97,1.45-0.79
					c0.62,0.18,0.97,0.83,0.79,1.45C1540.83,652.5,1540.18,652.85,1539.56,652.67z"/>
			</g>
			<g>
				<path class="st13" d="M1520,652.55c2.91,0.85,2.38,10.47-2.68,9.35c-2.31-0.51-2.06-2.73-1.69-4.97
					C1516.1,653.99,1517.4,651.79,1520,652.55z"/>
				<path class="st13" d="M1506.07,650.14c2.55,0.83,1.37,9.95-2.92,8.3c-1.97-0.75-2.21-2.34-1.75-4.34
					C1501.98,651.48,1503.79,649.4,1506.07,650.14z"/>
				<path class="st13" d="M1512.45,650.92c2.94,0.77,2.68,11.29-2.36,9.99c-2.29-0.59-2.14-2.66-1.84-4.92
					C1508.63,653.05,1509.82,650.24,1512.45,650.92z"/>
			</g>
			
				<linearGradient id="SVGID_00000106849130729101514380000016970917088186187146_" gradientUnits="userSpaceOnUse" x1="1526.2284" y1="640.3076" x2="1452.9414" y2="531.4154">
				<stop  offset="0" style="stop-color:#FF9595"/>
				<stop  offset="0.131" style="stop-color:#FFA39C"/>
				<stop  offset="0.3346" style="stop-color:#FFB2A4"/>
				<stop  offset="0.5" style="stop-color:#FFB7A7"/>
				<stop  offset="0.6696" style="stop-color:#FFB0A3"/>
				<stop  offset="0.9092" style="stop-color:#FF9E9A"/>
				<stop  offset="1" style="stop-color:#FF9595"/>
			</linearGradient>
			<path style="fill:url(#SVGID_00000106849130729101514380000016970917088186187146_);" d="M1516.37,620.86
				c4.89,1.9,8.69,5.07,10.34,9.19c1.65,4.13,3.9,8.14,1.15,9.34c-3.3,1.44-5.35-4.53-8.22-7.77c-1.06-1.19-7.79-0.39-9.99-4.5
				C1507.46,623.02,1511.2,618.85,1516.37,620.86z"/>
			<path class="st15" d="M1429.03,478.97c0,0-21.87,21.96-64.61,20.86c-32.32-0.83-42.01-16.2-42.01-16.2
				c4.14,15.2,13.85,31.23,14.06,39.22c0.55,20.83-14.25,19.36-26.85,82.2c19.3,18.63,117.42,12.6,137.33,0
				c-5.3-37.27-26.08-65.22-26.45-82.2C1420.12,505.5,1424.82,497.29,1429.03,478.97z"/>
			<path class="st16" d="M1417.41,416.61c-3.24-0.91-4.41-0.63-4.41-0.63s-15.69,24.66-40.36,24.11
				c-24.66-0.55-24.11-23.67-24.11-23.67s-2.49,0.69-5.83,1.88c0.83,5.81,4.81,24.05,22.27,27.26l4.38,13.7l6.03-13.7
				C1375.38,445.57,1405.84,442.94,1417.41,416.61z"/>
			<path class="st2" d="M1288.61,539.65c8.13-4.61,12.79-22.56-6.67-45.3c19.32,25.89,10.74,44.9-0.27,44.21
				c-11.69-0.73-22.29-11.69-33.61-51.51s-17.35-48.59-17.35-48.59c6.21,11.33,11.87,54.07,23.57,76.72
				C1265.96,537.82,1278.8,545.22,1288.61,539.65z"/>
		</g>
		<g>
			<path class="st17" d="M1438.17,280.02c2.52-3.33,5.98-3.83,9.78-4.44c0.61-0.1,0.49-0.95,0-1.12c-4.18-1.4-8.46,1.75-10.54,5.11
				C1437.1,280.07,1437.84,280.47,1438.17,280.02z"/>
			<path class="st17" d="M1437.45,280.13c11.66-3.02,22.78,2.36,25.6,14.8c2.52,11.15-1.45,24.22-13.99,26.09
				c-0.78,0.12-0.56,1.31,0.18,1.33c13.77,0.32,18.08-16.98,15.44-27.87c-2.83-11.68-15.8-21.61-27.61-15.27
				C1436.56,279.49,1436.91,280.27,1437.45,280.13z"/>
			<path class="st17" d="M1422.97,281.93c0,0,0-6.88,6.84-8.33c6.84-1.45,9.36,5.43,9.36,5.43s9.36-2.54,17.99,13.4
				c8.64,15.94-1.08,31.51-9,34.77c-7.92,3.26-17.27-2.54-17.27-2.54L1422.97,281.93z"/>
		</g>
		<path class="st18" d="M1422.64,360.95c25.04,7.42,23.28-38.54,16.3-50.71c-0.43-0.75-1.76-0.24-1.43,0.6
			c5.81,15,10.03,49.63-14.74,49.2C1422.23,360.03,1422.14,360.8,1422.64,360.95z"/>
		<path class="st18" d="M1329.3,338.26c3.01,7.22,6.15,13.46,4.76,21.56c-1,5.81-5.02,10.26-5.5,16.41
			c-0.48,6.21,1.47,11.92,6.6,15.52c0.75,0.53,1.56-0.61,0.96-1.24c-11.28-11.8-0.28-21.32,0.5-33.81
			c0.41-6.51-3.11-13.46-6.4-18.83C1329.94,337.4,1329.08,337.71,1329.3,338.26z"/>
		<path class="st18" d="M1335.17,348.94c0,0-15.47-10.14-13.31-33.32c2.16-23.18,14.75-34.05,31.67-41.65
			c16.91-7.61,31.12-6.42,37.24-0.26c0,0,14.76-9.7,31.31,6.24c8.13,7.83,17.26,22.48,19.22,36.28
			c2.66,18.65-0.87,36.53-14.36,40.87c0,0-0.81,24.72-33.46,29.52C1380.64,388.49,1335.17,348.94,1335.17,348.94z"/>
		<path class="st17" d="M1414.13,346.74l-15.41-1.46l-13.42,39.7c3.09,1.27,5.71,1.89,7.62,1.58
			C1424.51,381.54,1428.63,347.11,1414.13,346.74z"/>
		<path class="st17" d="M1426.08,341.27c0,0-26.95,0.27-44.5-11.92c-18.07-12.56-23.1-36.37-23.1-36.37s-17.87,2.43-25.79,16.85
			c-12.85,23.4,6.84,47.21,6.84,47.21l71.62,4.12l2.46-12.71C1419.98,346.97,1423.46,344.3,1426.08,341.27z"/>
		
			<linearGradient id="SVGID_00000121983713869134353440000014008648805582977720_" gradientUnits="userSpaceOnUse" x1="1387.2385" y1="319.6738" x2="1387.2385" y2="196.3936" gradientTransform="matrix(0.9558 0.2939 -0.2939 0.9558 127.1245 -311.1611)">
			<stop  offset="0" style="stop-color:#FFB7A7"/>
			<stop  offset="1" style="stop-color:#FF9595"/>
		</linearGradient>
		<path style="fill:url(#SVGID_00000121983713869134353440000014008648805582977720_);" d="M1411.54,348.37
			c-4.61-0.5-8.05,8.52-8.05,8.52c-7.48,1.59-4.86-15.35-4.86-15.35c-36.82-12.59-42.58-39.29-42.58-39.29
			c-17.72,3.02-20.34,23.04-20.34,23.04c-10.99,52.3,15.46,73.91,24.19,75.22c8.55,1.28,28.21-6.33,41.47-28.28
			c7.33,1.75,14.13-2.55,16.91-9.05C1420.94,356.96,1419.59,348.91,1411.54,348.37z"/>
		<g>
			<path class="st20" d="M1345.83,375.15c0,0,11.95,2.7,28.19-1.19c0,0-3.36,11.47-14.21,11.74
				C1350.26,385.95,1345.83,375.15,1345.83,375.15z"/>
			<path class="st21" d="M1350.82,377.29c0,0,8.99,1.45,20.38-1.28c0,0-2.36,6.67-11.01,7.24
				C1353.08,383.73,1350.82,377.29,1350.82,377.29z"/>
		</g>
		<path class="st2" d="M1356.7,350.76c1.7-5.1,0.98-11.02-2.33-16.01c2.32,2.05,3.88,4.79,4.76,7.68c0.84,2.87,1.18,6.07,0.33,8.99
			c-1.5,5.55-5.61,9.76-10.63,12.83c1.83,2.65,4.65,5.09,8.15,6.43c-6.26-0.74-9.8-3.59-13.68-7.5
			C1349.41,360.5,1354.85,356.72,1356.7,350.76z"/>
		<path class="st17" d="M1367.43,329.67c-0.58,3.08,4.16,1.07,13,4.39c5.34,2.01,9.77,5.75,10.66,5.09c0.89-0.66-1.62-4.03-9.34-8
			C1375.52,327.95,1367.85,327.41,1367.43,329.67z"/>
		<path class="st17" d="M1350.66,328.96c0.33,2.87-3.96,1.3-9.58,3.22c-4.03,1.38-6.89,3.87-7.73,3.39
			c-0.84-0.48,0.79-3.59,5.82-6.14C1343.81,327.09,1350.46,327.17,1350.66,328.96z"/>
		<g>
			<g>
				<path class="st20" d="M1371.05,345.72c-0.21,2.79,1.43,5.18,3.66,5.36c2.24,0.17,4.22-1.95,4.44-4.73
					c0.21-2.79-1.42-5.18-3.66-5.36C1373.25,340.81,1371.26,342.93,1371.05,345.72z"/>
				<path class="st20" d="M1385.27,349.72c-0.71-4.25-4.03-8.23-9.59-9.36c-3.23-0.71-6.35,2.9-5.86,5.09c0,0,2.48-2.38,5.85-1.56
					C1379.05,344.68,1385.27,349.72,1385.27,349.72z"/>
			</g>
			<g>
				<path class="st20" d="M1381.37,343.94c0,0,3.82-1.93,4.09-1.52s-2.79,3.02-2.79,3.02L1381.37,343.94z"/>
				<path class="st20" d="M1383,345.8c0,0,4.46-0.85,4.58-0.52c0.12,0.33-3.7,2.3-3.7,2.3L1383,345.8z"/>
			</g>
		</g>
		<g>
			<g>
				<path class="st20" d="M1337.74,344.29c-0.2,2.68,1.22,4.98,3.18,5.14c1.95,0.16,3.7-1.89,3.9-4.58c0.2-2.68-1.22-4.98-3.18-5.14
					C1339.68,339.56,1337.94,341.61,1337.74,344.29z"/>
				<path class="st20" d="M1349.34,348.01c0.11-3.98-3.22-8.52-7.45-8.91c-3.39-0.52-6.08,3.74-5.66,5.86c0,0,2.17-3.06,5.64-2.47
					C1345.76,343.16,1349.34,348.01,1349.34,348.01z"/>
			</g>
			<g>
				<path class="st20" d="M1338.89,341.61c0,0-3.24-2.47-3.55-2.11c-0.31,0.36,2.13,3.4,2.13,3.4L1338.89,341.61z"/>
				<path class="st20" d="M1337.12,343.19c0,0-3.98-1.5-4.14-1.2c-0.16,0.3,3.07,2.82,3.07,2.82L1337.12,343.19z"/>
			</g>
		</g>
		<path class="st22" d="M1414.36,362.14c-1.52,3.59-4.63,5.7-6.95,4.72c-2.31-0.98-2.95-4.69-1.43-8.27
			c1.52-3.59,4.63-5.7,6.95-4.72C1415.24,354.85,1415.88,358.55,1414.36,362.14z"/>
		<path class="st18" d="M1391.9,274.7c-6.42-11.27-17.32-12.71-28.94-8.55c-11.98,4.29-27.63,13.82-31.71,26.46
			c-0.27,0.83,1.08,1.44,1.44,0.61c4.27-9.86,13.01-15.77,22.11-20.95c12.73-7.24,25.9-10.02,35.91,3.13
			C1391.23,276.08,1392.35,275.49,1391.9,274.7z"/>
		<g>
			<path class="st17" d="M1370.48,285.06c5.4,20,21.6,35.95,41.82,40.68c0.35,0.08,0.5-0.44,0.15-0.55
				c-19.88-5.81-34.7-20.67-40.49-40.54C1371.68,283.71,1370.23,284.1,1370.48,285.06z"/>
			<path class="st17" d="M1396.57,306.67c8.69,8.78,21.94,15.27,33.93,18.04c0.6,0.14,0.82-0.71,0.25-0.92
				c-6.37-2.3-12.67-4.5-18.64-7.75c-5.34-2.9-10.07-6.59-15.15-9.88C1396.64,305.97,1396.31,306.42,1396.57,306.67z"/>
			<path class="st17" d="M1398.1,288.21c4.65,7.19,12.18,13.05,20.65,14.86c0.27,0.06,0.36-0.3,0.11-0.4
				c-8.13-3.42-14.73-7.88-20.19-14.89C1398.41,287.44,1397.87,287.86,1398.1,288.21z"/>
			<path class="st17" d="M1397.11,278.09c8.54,1.45,14.29,5.38,20.32,11.39c0.3,0.3,0.76-0.08,0.57-0.44
				c-3.77-7.29-12.75-11.82-20.75-12.01C1396.66,277.01,1396.5,277.98,1397.11,278.09z"/>
		</g>
		<g>
			<rect x="1238.92" y="936.38" class="st23" width="83.3" height="13.65"/>
			<rect x="480.45" y="936.38" class="st23" width="423.08" height="13.65"/>
			<path class="st23" d="M1245.22,950.03H898.04V174.58c0-1.98,1.6-3.58,3.58-3.58h340.03c1.98,0,3.58,1.6,3.58,3.58V950.03z"/>
			<path class="st24" d="M1230.67,949.16H913.16V189.72c0-1.25,1.01-2.25,2.25-2.25h313c1.25,0,2.25,1.01,2.25,2.25V949.16z"/>
			<g>
				<path class="st25" d="M1156.42,520.46c2.61,142.7,2.59,286.15,7.26,428.7h4.38c-0.06-135.66-4.57-271.67-6.57-407.24
					c-1.72-116.7-12.23-237.3-7.97-354.46h-6.35C1141.87,296.66,1154.45,412.75,1156.42,520.46z"/>
				<path class="st25" d="M1145.13,949.16c-3.34-253.49-7.33-509.1-17.76-761.7h-4.27c2.11,253.5,9.34,508.26,15.95,761.7H1145.13z"
					/>
				<path class="st25" d="M1081.88,949.16h5.69c2.34-124.87-0.46-250.82-1.44-375.48c-1.02-128.53-1.03-257.72-4.37-386.22h-6.36
					c0.65,128.71,3.75,257.53,4.78,386.22C1081.19,698.55,1079.39,824.24,1081.88,949.16z"/>
				<path class="st25" d="M1030.75,949.16h6.14c4.61-254.1,1.45-508.33-10.28-761.7h-4.01
					C1032.37,441.01,1035.37,695.14,1030.75,949.16z"/>
				<path class="st25" d="M998,949.16h4.22c1.28-127.97-8.34-255.93-13.23-383.36c-4.87-126.72-3.09-251.98,0.14-378.34h-6.24
					C971.14,441.97,993.94,694.92,998,949.16z"/>
				<path class="st25" d="M939.74,565.78c5.35,127.68,8.76,255.7,13.93,383.39h5.34c-1.22-127.84-9.69-256.09-14.59-383.39
					c-4.87-126.29-5.61-252.11-7.68-378.31h-6.56C927.46,312.99,934.53,441.45,939.74,565.78z"/>
				<path class="st25" d="M1193.37,583.98c0.86,122.63,9.12,243.42,14.39,365.19h6.51c-1.81-48.41-6.26-96.68-8.8-144.84
					c-3.87-73.24-5.82-146.8-6.51-220.35c-1.25-132.42,3.82-264.3,5.2-396.51h-5.25C1193.53,319.03,1192.45,452.32,1193.37,583.98z"
					/>
			</g>
			<rect x="954.7" y="237.61" class="st23" width="234.42" height="327.84"/>
			<g>
				<path class="st26" d="M1006.99,420.93c-2.03-61.03-1.94-122.39-5.83-183.33h-2.89c-0.22,58.11,3.37,116.38,4.92,174.46
					c1.35,50.52,9.95,102.81,5.44,153.38h4.58C1018.91,518.34,1008.55,467.72,1006.99,420.93z"/>
				<path class="st26" d="M1015.31,237.61c2.59,109.08,5.62,219.16,14,327.84h2.77c-1.47-109.09-7.22-218.77-12.36-327.84H1015.31z"
					/>
				<path class="st26" d="M1062.68,237.61h-3.8c-2.16,53.62,0.08,107.77,0.85,161.34c0.8,55.41,0.77,111.12,3.62,166.5h4.48
					c-0.34-55.48-2.84-111.02-3.64-166.5C1063.41,345.29,1064.9,291.26,1062.68,237.61z"/>
				<path class="st26" d="M1101.49,237.61h-4.61c-3.84,109.37-1.38,218.8,8.1,327.84h2.91
					C1100.01,456.33,1097.64,346.94,1101.49,237.61z"/>
				<path class="st26" d="M1125.69,237.61h-2.85c-1.69,54.94,5.96,109.89,9.78,164.6c3.81,54.67,2.19,108.68-0.43,163.24h4.39
					C1146.97,455.88,1128.26,347.04,1125.69,237.61z"/>
				<path class="st26" d="M1169.56,402.21c-4.18-54.82-6.77-109.8-10.92-164.61h-3.63c0.49,54.87,7.21,109.95,11.03,164.61
					c3.81,54.49,4.26,108.76,5.97,163.23h4.39C1179.25,511.39,1173.64,455.87,1169.56,402.21z"/>
				<path class="st26" d="M979.27,394.7c-0.67-52.75-7.37-104.68-11.27-157.09h-4.76c1,22.09,4.85,44.11,6.96,66.08
					c2.9,30.25,4.36,60.63,4.88,91.01c0.98,57.02-3.2,113.8-4.02,170.75h3.52C979.08,508.85,979.99,451.4,979.27,394.7z"/>
			</g>
			<rect x="954.7" y="652.44" class="st23" width="234.42" height="264.69"/>
			<g>
				<path class="st26" d="M1129.64,652.44h-4.88c1.32,33.38,6.54,67.33,7.61,99.47c1.83,54.99,1.94,110.24,4.78,165.22h3.89
					c-0.46-52.1-3.48-104.31-4.87-156.36C1135.22,725.14,1130.66,688.62,1129.64,652.44z"/>
				<path class="st26" d="M1108.1,652.44c2.06,88.17,6.47,176.61,10.67,264.69h4.83c-2.14-88.09-4.75-176.74-10.39-264.69H1108.1z"
					/>
				<path class="st26" d="M1079.63,773.9c-0.58-40.41-0.72-80.98-1.86-121.46h-5.57c0.89,40.49,2.38,80.99,2.97,121.46
					c0.69,47.63-0.41,95.55,0.89,143.24h4.99C1082.16,869.45,1080.31,821.45,1079.63,773.9z"/>
				<path class="st26" d="M1037.89,652.44h-3.49c5.12,88.14,6.6,176.43,4.04,264.69h4.6
					C1045.59,828.85,1043.99,740.54,1037.89,652.44z"/>
				<path class="st26" d="M1005.33,652.44h-5.29c-2.63,88.35,9.67,176.35,13.07,264.69h3.65c-0.18-48.91-6.61-97.79-10.01-146.49
					C1003.98,731.05,1004.07,691.8,1005.33,652.44z"/>
				<path class="st26" d="M968.57,652.44h-6.25c0.77,39.53,4.52,79.35,7.48,118.19c3.72,48.79,6.18,97.7,9.6,146.5h4.57
					c-1.56-48.87-7.25-97.86-10.66-146.5C970.55,731.18,969.56,691.83,968.57,652.44z"/>
				<path class="st26" d="M1164.28,778.15c-0.72-41.98,1.35-83.83,2.82-125.71h-5.18c-2.01,41.88-2.36,84-1.83,125.71
					c0.59,46.67,5.9,92.7,9.82,138.99h4.85c-1.61-16.02-4.06-32.01-5.6-47.97C1166.26,838.91,1164.8,808.53,1164.28,778.15z"/>
			</g>
			<path class="st27" d="M954.7,237.61v327.84h234.42V237.61H954.7z M1180.22,555.39H963.6V247.66h216.62V555.39z"/>
			<path class="st27" d="M954.7,652.44v264.48h234.42V652.44H954.7z M1180.22,907.26H963.6V662.11h216.62V907.26z"/>
			<path class="st27" d="M1225.25,187.46H918.58c-2.99,0-5.42,2.52-5.42,5.64v756.06h7.42V200.69c0-3.04,2.37-5.51,5.29-5.51h292.08
				c2.92,0,5.29,2.47,5.29,5.51v748.48h7.42V193.1C1230.67,189.99,1228.24,187.46,1225.25,187.46z"/>
			<g>
				<path class="st23" d="M970.99,612.64c0,10.66-8.64,19.29-19.29,19.29s-19.29-8.64-19.29-19.29s8.64-19.29,19.29-19.29
					S970.99,601.98,970.99,612.64z"/>
				<path class="st28" d="M970.99,608.38c0,10.66-8.64,19.29-19.29,19.29s-19.29-8.64-19.29-19.29c0-10.66,8.64-19.29,19.29-19.29
					S970.99,597.72,970.99,608.38z"/>
				<path class="st29" d="M934.06,608.38c0,0.39,0.01,0.77,0.04,1.15c8.99-0.81,16.04-8.36,16.04-17.56c0-0.39-0.01-0.77-0.04-1.15
					C941.11,591.62,934.06,599.18,934.06,608.38z"/>
				<path class="st23" d="M995.54,624.3h-44.25c-4.23,0-7.65-3.43-7.65-7.65c0-4.23,3.43-7.65,7.65-7.65h44.25
					c4.23,0,7.65,3.43,7.65,7.65C1003.2,620.87,999.77,624.3,995.54,624.3z"/>
				<path class="st30" d="M943.64,609.04v16.87c2.45,1.13,5.18,1.76,8.06,1.76c10.43,0,18.93-8.28,19.28-18.63H943.64z"/>
				<path class="st28" d="M995.54,616.03h-44.25c-4.23,0-7.65-3.43-7.65-7.65c0-4.23,3.43-7.65,7.65-7.65h44.25
					c4.23,0,7.65,3.43,7.65,7.65C1003.2,612.6,999.77,616.03,995.54,616.03z"/>
				<path class="st31" d="M995.54,612.12h-44.25c-3.54,0-6.51-2.4-7.39-5.66c-0.17,0.64-0.26,1.31-0.26,2
					c0,4.23,3.43,7.65,7.65,7.65h44.25c4.23,0,7.65-3.43,7.65-7.65c0-0.69-0.09-1.36-0.26-2
					C1002.05,609.72,999.08,612.12,995.54,612.12z"/>
				<g>
					<path class="st29" d="M971.12,606.94h-19.36c-1.12,0-2.02-0.9-2.02-2.02c0-1.12,0.9-2.02,2.02-2.02h19.36
						c1.12,0,2.02,0.9,2.02,2.02C973.14,606.03,972.24,606.94,971.12,606.94z"/>
					<path class="st29" d="M981.55,606.94h-4.17c-1.12,0-2.02-0.9-2.02-2.02c0-1.12,0.9-2.02,2.02-2.02h4.17
						c1.12,0,2.02,0.9,2.02,2.02C983.56,606.03,982.66,606.94,981.55,606.94z"/>
				</g>
			</g>
			<g>
				<path class="st32" d="M1084.52,373.44c0,7.63-5.65,13.82-12.61,13.82s-12.61-6.19-12.61-13.82s5.65-13.82,12.61-13.82
					S1084.52,365.81,1084.52,373.44z"/>
				<path class="st28" d="M1084.52,368.89c0,6.96-5.65,12.61-12.61,12.61s-12.61-5.65-12.61-12.61s5.65-12.61,12.61-12.61
					S1084.52,361.93,1084.52,368.89z"/>
				<circle class="st3" cx="1071.91" cy="368.89" r="8.99"/>
				<circle class="st33" cx="1071.91" cy="368.89" r="6.54"/>
				<path class="st34" d="M1066.58,368.89c0,0.7,0.14,1.38,0.39,1.99c0.49,0.15,1.02,0.23,1.56,0.23c2.92,0,5.29-2.37,5.29-5.29
					c0-0.7-0.14-1.38-0.39-1.99c-0.49-0.15-1.02-0.23-1.56-0.23C1068.95,363.61,1066.58,365.98,1066.58,368.89z"/>
			</g>
			<g>
				<path class="st8" d="M864.99,370.31h-33.63c-1.33,0-2.41-1.08-2.41-2.41v-34.46c0-1.33,1.08-2.41,2.41-2.41h33.63
					c1.33,0,2.41,1.08,2.41,2.41v34.46C867.39,369.23,866.32,370.31,864.99,370.31z"/>
				<path class="st7" d="M863,368.3h-31.78c-1.26,0-2.28-1.02-2.28-2.28v-32.71c0-1.26,1.02-2.28,2.28-2.28H863
					c1.26,0,2.28,1.02,2.28,2.28v32.71C865.28,367.28,864.26,368.3,863,368.3z"/>
				<path class="st35" d="M830.68,337.86v16.47c1.73,0.53,3.57,0.81,5.48,0.81c10.39,0,18.82-8.42,18.82-18.82
					c0-1.21-0.11-2.38-0.33-3.53h-18.91C832.94,332.8,830.68,335.07,830.68,337.86z"/>
				<g>
					<path class="st33" d="M856.86,349.67c0,5.38-4.36,9.75-9.75,9.75c-5.38,0-9.75-4.36-9.75-9.75c0-5.38,4.36-9.75,9.75-9.75
						C852.5,339.92,856.86,344.28,856.86,349.67z"/>
					<path class="st7" d="M854.21,349.67c0,3.91-3.17,7.09-7.09,7.09c-3.92,0-7.09-3.17-7.09-7.09c0-3.91,3.17-7.09,7.09-7.09
						C851.03,342.58,854.21,345.75,854.21,349.67z"/>
					<path class="st36" d="M841.34,349.67c0,0.76,0.15,1.49,0.42,2.16c0.53,0.16,1.1,0.25,1.69,0.25c3.16,0,5.73-2.56,5.73-5.73
						c0-0.76-0.15-1.49-0.42-2.16c-0.53-0.16-1.1-0.25-1.69-0.25C843.91,343.94,841.34,346.5,841.34,349.67z"/>
				</g>
			</g>
		</g>
		<g>
			<path class="st37" d="M1307.97,977.3c0,8.8-105.81,15.93-236.34,15.93c-130.53,0-236.34-7.13-236.34-15.93
				c0-8.8,105.81-15.93,236.34-15.93C1202.16,961.37,1307.97,968.5,1307.97,977.3z"/>
			<ellipse class="st38" cx="1071.63" cy="974.6" rx="229.9" ry="12.34"/>
		</g>
		<g>
			<g>
				<path class="st39" d="M1257.2,743.81c-0.39-4.75-7.83-8.07-11.24-10.41c-4.42-3.04-7.66-7.07-10.57-11.51
					c2.67-0.85,4.05-4.06,6.05-5.85c-2.58-1.07-6.76-0.37-9.87-0.37c-3.77-13.62-7.62-28.57,3.25-40.55
					c4.23,0.45,9.61,1.94,13.62,3.65c-1.02-3.67-5.6-6.83-6.87-10.6c3.41-3.53,5.61-8.81,9.31-12.42c3.3-3.21,6.67-6.03,10.56-8.4
					c0.97,2.32,5.46,4.97,7.49,6.58c-1.3-2.76-0.47-8.01-1.05-11.33c1.76-4.71,8.64-7.26,12.89-9.42
					c5.42-2.75,10.52-4.95,13.22-10.68c1.42,5.3,2.04,10.1,2.99,15.69c1.17,6.93,3.37,13.97,3.88,20.84
					c-2.77,1.42-6.97,4.02-8.95,6.58c3.4,0.13,7.6,2.09,10.34,4.02c1.97,7.27-0.38,16.24,2.12,23.38
					c-3.04-0.25-11.77,2.56-13.41,4.02c4.68,1.71,9.66,4.33,13.71,6.94c0.32,11.56-4.74,23.44-15.26,29.23
					c-3.56-1.88-6.47-5.09-10.06-6.94c2.07,3.19,1.7,7.49,2.86,10.96c-4.13,1.27-8.04,3.55-12.31,4.02
					C1265.45,741.74,1260.74,741.21,1257.2,743.81z"/>
				<path class="st40" d="M1238.32,911.45c0,0,0.5-1.17,0.91-2.9c0.49-1.97,1.01-5.02,1.48-8.96c0.95-7.9,1.72-19.35,2.24-33.12
					c0.23-6.89,0.49-14.35,0.75-22.25c0.08-3.95,0.17-8.01,0.25-12.15l0.04-3.12l0.04-1.7l0.1-1.58c0.14-2.12,0.28-4.25,0.42-6.41
					c1.21-17.31,3.18-35.7,6.1-53.97c1.44-9.13,3.15-18.23,4.94-27.13c1.77-8.87,3.43-17.65,5.68-26.11
					c4.36-16.87,10.23-32.07,15.93-44.69c5.63-12.66,10.66-22.98,13.18-30.57c1.34-3.77,2.09-6.82,2.51-8.91
					c0.41-2.1,0.63-3.22,0.63-3.22l0.01-0.04c0.06-0.29,0.33-0.47,0.62-0.42c0.28,0.05,0.46,0.32,0.42,0.59c0,0-0.17,1.15-0.48,3.31
					c-0.32,2.15-0.94,5.31-2.12,9.2c-2.16,7.86-6.77,18.51-12.03,31.24c-5.19,12.76-10.72,27.84-14.73,44.5
					c-2.07,8.27-3.48,17.08-5.29,25.99c-1.75,8.89-3.41,17.9-4.8,26.98c-2.82,18.13-4.71,36.42-5.85,53.57
					c-0.13,2.15-0.26,4.29-0.39,6.41l-0.1,1.58l-0.02,1.45l-0.03,3.14c-0.07,4.16-0.14,8.24-0.21,12.2
					c-0.18,7.93-0.39,15.43-0.71,22.35c-0.67,13.84-1.56,25.37-2.62,33.47c-0.53,4.05-1.11,7.25-1.68,9.47
					c-0.65,2.46-1.11,3.4-1.11,3.4l-0.12,0.26c-0.53,1.08-1.84,1.54-2.92,1.01C1238.32,913.77,1237.87,912.52,1238.32,911.45z"/>
				<path class="st39" d="M1160.89,719.42c3.42,6.88,7.21,12.88,10.37,18.09c2.49-0.43,5.59-0.62,7.91-1.37
					c-1.63,2.42-4.12,4.87-4.99,7.67c-0.61,1.97,2.07,7.42,2.8,9.8c0.87,2.84,2.03,5.81,3.47,8.56c2.5-0.65,5.61-1.34,7.88-2.19
					c-1.24,2.77-2.86,5.49-4.15,8.22c2.14,1.76,3.12,5.12,5.24,6.99c1.52,1.34,3.67,2.46,4.93,3.97c2.19-1.52,5.05-7.35,7.46-7.67
					c-0.09,2.82,0.73,8.07,1.94,10.41c14.46,4.29,21.15-1.46,29.69,0.09c0.46-2.77,2.2-4.79,4.12-6.61
					c2.73-2.58,3.39-4.83,3.31-8.56c-1.66-0.33-3.45-2.06-5.07-2.67c-1.34-0.51-2.55-0.99-3.82-1.44c1.69-0.54,5.73-2.28,7.58-3.29
					c-1.7-2.53-1.91-7.04-3.63-10.07c-1.76-3.1-4.48-5.63-7.54-7.19c-2.37,1.52-5.01,3.33-7.26,4.93c-0.08-2.89,0.15-5.56,0.32-8.22
					c-3.94-3.7-11.9-5.43-16.88-6.03c-1.76,0.6-3.56,2.15-5.11,3.29c-0.36-3.15-0.17-6.03-0.17-6.03
					c-5.19-1.35-10.21-1.49-15.31-3.53C1180.39,725.15,1165.41,719.57,1160.89,719.42z"/>
				<path class="st40" d="M1161.88,719.54c0,0,2.48,2.48,7.73,5.62c2.62,1.57,5.86,3.4,9.6,5.48c3.74,2.09,8.06,4.32,12.62,7.04
					c9.1,5.42,19.83,12.1,29.28,21.89c4.71,4.86,9.09,10.5,12.38,16.92c3.44,6.51,5.27,13.48,6.8,20.51
					c2.97,14.02,4.17,28.18,5.01,41.43c0.77,13.26,1.08,25.64,0.94,36.26c-0.1,10.62-0.5,19.46-0.93,25.67
					c-0.43,6.2-1.01,9.82-1.01,9.82c-0.18,1.2-1.3,2.02-2.5,1.84c-1.19-0.18-2-1.3-1.84-2.48c0,0,0.49-3.35,0.82-9.47
					c0.33-6.1,0.6-14.87,0.54-25.39c-0.09-10.52-0.26-22.81-1.09-35.94c-0.85-13.1-2.11-27.11-4.79-40.73
					c-1.37-6.73-3.15-13.55-6.18-19.36c-2.98-5.96-7.01-11.28-11.43-15.94c-8.93-9.29-19.11-16.21-27.93-21.88
					c-4.45-2.84-8.52-5.45-12.14-7.76c-3.63-2.32-6.76-4.43-9.23-6.33c-2.49-1.89-4.35-3.48-5.53-4.73c-1.18-1.21-1.71-1.9-1.71-1.9
					l-0.03-0.04c-0.14-0.18-0.1-0.44,0.08-0.57C1161.51,719.38,1161.74,719.4,1161.88,719.54z"/>
				<path class="st39" d="M1264.85,798.88c6.11-3.38,5.49-10.69,14.2-19.18c3.36,1.35,6.07,6.54,7.97,9.59
					c0.11-4.92-0.64-9.78-1.26-14.52c10.31-10.33,24.03-7.4,30.54-4.66l-1.61,9.32c2.21-2.07,4.76-3.97,7.53-5.21
					c5.51,3.99,11.57,8.9,16.35,13.97c-0.72,2.52-3.62,6.28-3.77,7.95c2.69-1.4,6.17-1.81,9.11-2.74
					c4.55,3.61,7.82,9.33,10.86,14.25c3.86,6.26,6.98,13.53,12.95,18.09c-4.42,1.37-14.62,3.93-19.04,5.21
					c-2.26-2.42-4.8-6.68-7.44-8.77c-0.08,3.32,0.63,7.19,0.54,10.69c-4.56,3.41-11.8,3.97-17.12,4.93
					c-2.52-2.99-5.65-6.44-7.69-9.86c-0.07,2.35-0.81,8.75-2.18,9.86c-2.74,2.25-9.4,0.5-12.96,0.55c-4.1,0.05-7.99-0.63-11.37-2.74
					c-0.72-3.76-1.36-10.86-1.26-14.8c-2.99,2.06-5.35,7.21-7.39,10.14c-5.32-2.88-9.99-9.59-13.39-14.53
					C1264.41,810.55,1264.47,803.27,1264.85,798.88z"/>
				<path class="st40" d="M1367.59,826.11c0,0-3.35-1.08-9.07-3.33c-5.73-2.21-13.77-5.82-23.09-10.74
					c-9.17-4.96-20.11-10.42-32.45-13.57c-6.21-1.59-12.6-2.18-19.38-1.74c-3.3,0.19-6.73,0.48-9.71,1.32
					c-3.07,0.81-4.97,2.44-7.29,5.14c-4.16,4.47-5.43,11.53-6.55,18.06c-1,6.67-1.48,13.38-1.82,19.89
					c-0.66,13.03-0.83,25.28-1.34,35.8c-0.45,10.52-1.26,19.32-2.21,25.48c-0.95,6.16-1.96,9.65-1.96,9.65l-0.03,0.09
					c-0.33,1.16-1.55,1.83-2.71,1.5c-1.16-0.33-1.84-1.54-1.5-2.71c0,0,0.93-3.25,1.82-9.19c0.89-5.95,1.65-14.58,2.06-25.02
					c0.46-10.44,0.58-22.67,1.19-35.84c0.32-6.58,0.77-13.41,1.78-20.37c0.51-3.48,1.2-6.99,2.27-10.5
					c0.53-1.76,1.21-3.51,2.04-5.24c0.44-0.86,1.04-1.87,1.56-2.65l0.79-1.05l0.51-0.64l0.42-0.5c1.12-1.34,2.44-2.79,4.13-4.02
					c1.69-1.23,3.63-2.06,5.49-2.56c3.75-1,7.3-1.23,10.85-1.41c6.97-0.41,14.21,0.28,20.7,2.02c6.57,1.61,12.56,4.17,18.04,6.83
					c5.46,2.68,10.5,5.51,14.99,8.21c8.9,5.48,16.65,9.43,22.08,12.23c5.45,2.75,8.66,4.11,8.66,4.11c0.21,0.09,0.3,0.32,0.21,0.53
					C1368,826.08,1367.78,826.18,1367.59,826.11z"/>
				<path class="st40" d="M1241.3,908.29h-0.02c-1.21-0.01-2.18-1.01-2.17-2.21c0-0.57,0.35-57.74-15.16-82.37
					c-0.65-1.02-0.34-2.38,0.69-3.02c1.02-0.64,2.38-0.34,3.02,0.68c16.2,25.72,15.86,82.35,15.84,84.75
					C1243.48,907.32,1242.5,908.29,1241.3,908.29z"/>
				<path class="st39" d="M1229.69,804.82c8.15-3.45,21.73-0.79,25.45,8.4c-3.86-0.27-9.73-0.21-13.12,1.1
					c10.01-0.44,12.58,7.58,17.56,13.88c-0.83,4.16-5.65,10.65-9.13,13.15c-4.11-2.81-9.19-5.71-13.74-8.04
					c1.04,4.54,4.79,8.37,6.2,12.79c-2.35,2.9-9.68,4.6-13,5.48c-3.86-3.39-8.37-7.78-12.72-10.6c1.19,4.48,4.87,7.66,5.82,12.06
					c-5.93,2.06-11.42,3.33-17.03,5.12c-2-2.66-5.73-4.52-7.87-6.94c0.76,3.75,0.89,6.73,1.03,10.59
					c-5.51,3.33-11.62,4.37-17.16,8.04c-4.28,2.84-9.43,6.03-11.91,10.6c-1.61-4.57-0.45-11.97-0.11-16.81
					c0.32-4.47-0.27-10.64,1.04-14.98c3.49-1.31,7.76-3.59,10.47-4.38c-2.31-0.65-7.41-2.55-9.91-1.46
					c0.17-5.25,0.19-11.98,2.09-16.81c4.36,0.44,10-1.46,14.19-2.19c-3.9-0.79-8.89-1.97-12.51-3.29
					c0.69-6.73,4.84-14.15,10.08-18.27c3.7,1.71,7.45,1.95,11.07,4.02c-1.68-2.54-2.98-5.65-4.97-8.04
					c5.34-3.66,15.86-3.65,20.36-3.65c1.73,1.56,2.73,4.09,3.83,6.21c0.59-1.64,1.15-3.63,2.42-4.75
					C1222,798.41,1226.3,800.91,1229.69,804.82z"/>
				<path class="st40" d="M1304.37,693.02c-2.5-7.14-0.15-16.11-2.12-23.38c-2.74-1.93-6.94-3.89-10.34-4.02
					c1.98-2.56,6.17-5.16,8.95-6.58c-0.52-6.87-2.71-13.91-3.88-20.84c-0.86-5.09-1.48-9.54-2.65-14.29
					c-1.26,9.65-7.67,24.83-18.87,50.55c-11.18,25.68-16.85,58.03-18.48,68.49c0.08,0.28,0.2,0.56,0.23,0.85
					c3.54-2.6,8.25-2.07,12.72-2.56c4.27-0.47,8.18-2.76,12.31-4.02c-1.16-3.47-0.8-7.77-2.86-10.96c3.59,1.85,6.5,5.06,10.06,6.94
					c10.52-5.78,15.58-17.67,15.26-29.23c-4.05-2.61-9.03-5.23-13.71-6.94C1292.61,695.58,1301.34,692.77,1304.37,693.02z"/>
				<path class="st40" d="M1348.69,830.94c4.42-1.28,14.62-3.84,19.04-5.21c-0.12-0.09-0.24-0.19-0.35-0.28
					c-4.99-1.94-12.7-5.14-20.67-9.24c-13.52-6.94-18.27-12.79-47.13-21.19c-20.01-5.83-30.36,0.82-34.83,5.44
					c-0.24,4.42,0.12,10.74,3.7,15.94c3.4,4.94,8.07,11.65,13.39,14.53c2.04-2.92,4.39-8.08,7.39-10.14
					c-0.1,3.93,0.54,11.04,1.26,14.8c3.38,2.11,7.27,2.79,11.37,2.74c3.56-0.05,10.22,1.7,12.96-0.55c1.36-1.12,2.11-7.51,2.18-9.86
					c2.04,3.43,5.17,6.88,7.69,9.86c5.31-0.96,12.56-1.52,17.12-4.93c0.09-3.5-0.62-7.37-0.54-10.69
					C1343.89,824.26,1346.42,828.52,1348.69,830.94z"/>
				<path class="st40" d="M1237.55,775.38c2.73-2.58,3.39-4.83,3.31-8.56c-1.66-0.33-3.45-2.06-5.07-2.67
					c-1.34-0.51-2.55-0.99-3.82-1.44c1.69-0.54,5.73-2.28,7.58-3.29c-1.7-2.53-1.91-7.04-3.63-10.07c-1.76-3.1-4.48-5.63-7.54-7.19
					c-2.37,1.52-5.01,3.33-7.26,4.93c-0.08-2.89,0.15-5.56,0.32-8.22c-3.94-3.7-11.9-5.43-16.88-6.03c-1.76,0.6-3.56,2.15-5.11,3.29
					c-0.36-3.15-0.17-6.03-0.17-6.03c-5.19-1.35-10.21-1.49-15.31-3.53c-3.57-1.43-18.55-7.01-23.07-7.16
					c0.02,0.05,0.05,0.1,0.07,0.15c2.06,1.61,8.57,6.42,23.34,15.55c18.63,11.51,33.98,22.47,42.75,35.07
					c3.13,4.5,5.18,8.23,6.52,11.17C1234.17,778.91,1235.78,777.06,1237.55,775.38z"/>
				<path class="st40" d="M1204.58,820.24c14.32-12.67,25.11-15.42,25.11-15.42c-3.39-3.91-7.68-6.41-11.57-8.77
					c-1.28,1.11-1.83,3.11-2.42,4.75c-1.1-2.12-2.09-4.65-3.83-6.21c-4.5,0-15.02-0.01-20.36,3.65c2,2.39,3.29,5.5,4.97,8.04
					c-3.63-2.07-7.37-2.31-11.07-4.02c-5.25,4.12-9.4,11.54-10.08,18.27c3.63,1.32,8.62,2.5,12.51,3.29
					c-4.19,0.73-9.83,2.63-14.19,2.19c-1.89,4.83-1.92,11.56-2.09,16.81c2.5-1.09,7.59,0.81,9.91,1.46
					c-2.72,0.79-6.98,3.08-10.47,4.38c-1.31,4.34-0.72,10.51-1.04,14.98c-0.34,4.84-1.5,12.24,0.11,16.81
					C1171.7,869.93,1185.58,837.05,1204.58,820.24z"/>
			</g>
			<g>
				<path class="st7" d="M1200.28,895.63H1296c0,0-3.83,52.97-22.97,82.32h-50.41C1222.61,977.95,1204.11,942.21,1200.28,895.63z"/>
				<path class="st8" d="M1273.03,977.95c19.14-29.35,22.97-82.32,22.97-82.32h-58.31c9.05,1.69,23.59,4.84,27.04,8.3
					c4.79,4.79-7.84,58.46-17.32,74.03H1273.03z"/>
				<g>
					<path class="st8" d="M1216.23,915.52c7.83,0.89,17.43,1.32,25.11-0.64c0.98-0.25,0.7-1.61-0.23-1.68
						c-8.01-0.63-16.83,0.33-24.88,0.74C1215.2,914,1215.24,915.41,1216.23,915.52z"/>
					<path class="st8" d="M1232.02,928.1c13.53,4.84,32.04,4.55,45.78,0.71c0.98-0.27,0.82-1.88-0.25-1.82
						c-7.61,0.43-15.06,1.61-22.7,1.53c-7.6-0.08-15.09-1.49-22.66-1.67C1231.44,926.83,1231.38,927.87,1232.02,928.1z"/>
					<path class="st8" d="M1223.89,953.21c2.51,0.25,5.04,0.25,7.56,0.28c2.22,0.03,4.54,0.29,6.69-0.29c0.77-0.21,0.77-1.35,0-1.56
						c-2.15-0.57-4.48-0.32-6.69-0.29c-2.52,0.04-5.05,0.03-7.56,0.28C1222.87,951.74,1222.87,953.11,1223.89,953.21z"/>
					<path class="st8" d="M1223.17,963.52c13.48,4.01,30.19,1.57,43.8-0.97c1.53-0.28,0.88-2.62-0.64-2.33
						c-7.6,1.45-15.25,2.48-22.98,2.77c-6.69,0.26-13.45-0.64-20.09-0.08C1222.92,962.95,1222.82,963.42,1223.17,963.52z"/>
					<path class="st8" d="M1235.81,908.42c3.67,0.52,7.35,0.88,11.04,1.13c1.37,0.09,1.35-2.01,0-2.12
						c-3.61-0.31-7.21-0.52-10.83-0.56C1235.16,906.85,1234.91,908.29,1235.81,908.42z"/>
					<path class="st8" d="M1207.07,902.73c2.71,1.22,6.24,1,9.16,1.14c1.44,0.07,1.44-2.17,0-2.24c-2.84-0.14-6.3-0.71-9.04,0.23
						C1206.83,901.97,1206.66,902.54,1207.07,902.73z"/>
				</g>
			</g>
		</g>
		<g>
			<g>
				<rect x="690.14" y="698.12" class="st7" width="16.99" height="270.73"/>
				<rect x="707.13" y="698.12" class="st8" width="16.99" height="270.73"/>
			</g>
			<g>
				<rect x="617.26" y="698.12" class="st7" width="16.99" height="270.73"/>
				<rect x="634.24" y="698.12" class="st8" width="16.99" height="270.73"/>
			</g>
			<g>
				<rect x="822.22" y="698.12" class="st7" width="16.99" height="270.73"/>
				<rect x="839.21" y="698.12" class="st8" width="16.99" height="270.73"/>
			</g>
			<rect x="617.26" y="698.12" class="st7" width="149.06" height="59.19"/>
			
				<rect x="766.32" y="698.12" transform="matrix(-1 -1.224647e-16 1.224647e-16 -1 1622.515 1455.4178)" class="st8" width="89.88" height="59.19"/>
			<rect x="617.26" y="928.15" class="st7" width="149.06" height="22.2"/>
			
				<rect x="766.32" y="928.15" transform="matrix(-1 -1.224647e-16 1.224647e-16 -1 1622.515 1878.4967)" class="st8" width="89.88" height="22.2"/>
			<g>
				<rect x="749.33" y="698.12" class="st7" width="16.99" height="270.73"/>
				<rect x="766.32" y="698.12" class="st8" width="16.99" height="270.73"/>
			</g>
			<rect x="617.26" y="698.12" class="st8" width="149.06" height="11.51"/>
			
				<rect x="766.32" y="698.12" transform="matrix(-1 -1.224647e-16 1.224647e-16 -1 1622.515 1407.7391)" class="st41" width="89.88" height="11.51"/>
			<rect x="604.1" y="683.32" class="st7" width="162.22" height="18.09"/>
			
				<rect x="766.32" y="683.32" transform="matrix(-1 -1.224647e-16 1.224647e-16 -1 1635.6675 1384.7219)" class="st8" width="103.03" height="18.09"/>
			<g>
				<rect x="617.26" y="732.4" class="st42" width="149.06" height="4.32"/>
				
					<rect x="766.32" y="732.4" transform="matrix(-1 -1.224647e-16 1.224647e-16 -1 1622.515 1469.1185)" class="st43" width="89.88" height="4.32"/>
				<rect x="690.14" y="785.01" class="st42" width="17.72" height="4.32"/>
				
					<rect x="766.32" y="785.01" transform="matrix(-1 -1.224647e-16 1.224647e-16 -1 1549.627 1574.3397)" class="st43" width="16.99" height="4.32"/>
				<rect x="690.14" y="812.13" class="st42" width="17.72" height="2.7"/>
				
					<rect x="766.32" y="812.13" transform="matrix(-1 -1.224647e-16 1.224647e-16 -1 1549.627 1626.9506)" class="st43" width="16.99" height="2.7"/>
				<rect x="690.14" y="875.62" class="st42" width="17.72" height="4.32"/>
				
					<rect x="766.32" y="875.62" transform="matrix(-1 -1.224647e-16 1.224647e-16 -1 1549.627 1755.5553)" class="st43" width="16.99" height="4.32"/>
				<rect x="617.26" y="785.01" class="st42" width="17.54" height="4.32"/>
				<rect x="617.26" y="812.13" class="st42" width="17.54" height="2.7"/>
				<rect x="617.26" y="875.62" class="st42" width="17.54" height="4.32"/>
				<rect x="749.33" y="785.01" class="st42" width="16.99" height="4.32"/>
				<rect x="749.33" y="812.13" class="st42" width="16.99" height="2.7"/>
				<rect x="749.33" y="875.62" class="st42" width="16.99" height="4.32"/>
				
					<rect x="839.39" y="785.01" transform="matrix(-1 -1.224647e-16 1.224647e-16 -1 1695.5856 1574.3397)" class="st43" width="16.81" height="4.32"/>
				
					<rect x="839.39" y="812.13" transform="matrix(-1 -1.224647e-16 1.224647e-16 -1 1695.5856 1626.9506)" class="st43" width="16.81" height="2.7"/>
				<rect x="690.14" y="915.62" class="st42" width="17.72" height="3.24"/>
				
					<rect x="766.32" y="915.62" transform="matrix(-1 -1.224647e-16 1.224647e-16 -1 1549.627 1834.4711)" class="st43" width="16.99" height="3.24"/>
				<rect x="617.26" y="915.62" class="st42" width="17.54" height="3.24"/>
				<rect x="749.33" y="915.62" class="st42" width="16.99" height="3.24"/>
				
					<rect x="839.39" y="915.62" transform="matrix(-1 -1.224647e-16 1.224647e-16 -1 1695.5856 1834.4711)" class="st43" width="16.81" height="3.24"/>
				
					<rect x="839.39" y="875.62" transform="matrix(-1 -1.224647e-16 1.224647e-16 -1 1695.5856 1755.5553)" class="st43" width="16.81" height="4.32"/>
			</g>
		</g>
		<path class="st3" d="M381.29,942.12c0.33,8.84-7.38,15.27-6.88,21.7c0.58,7.4,52.4,5.66,54.21,1.03
			c3.63-9.26-26.49-10.4-28.71-17.69c-1.56-5.11,0.81-10.18,0.81-10.18L381.29,942.12z"/>
		<path class="st33" d="M399.79,585.78c0,0-3.41,26.07-3.96,63.35c-0.57,38.46,7.92,102.87,4.9,125.34
			c-3.02,22.47-33.58,125.03-32.86,140.34c0.72,15.31,5.14,25.67,14.56,29.25c9.34,3.54,29.5,4.88,39.38-13.48
			c6.72-12.49,34.83-115.22,42.73-151.04c3.04-13.78,21.36-119.84,21.36-119.84l11.02-6.17l-2.49-58.61L399.79,585.78z"/>
		<path class="st44" d="M398.8,596.71l27.95,6.79c0,0-11.97,17.35-30.07,22.44L398.8,596.71z"/>
		<path class="st44" d="M395.83,649.12c-0.57,38.46,7.92,102.87,4.9,125.34c-3.02,22.47-33.58,125.03-32.86,140.34
			c0.72,15.31,5.14,25.67,14.56,29.25c0.77,0.29,1.62,0.57,2.53,0.83c-7.72-4.24-14.86-15.76-13.76-30.74
			c1.95-26.6,37.27-109.97,39.09-136.64c1.05-15.31-12.25-105.5-14.24-138.88C395.96,642,395.88,645.51,395.83,649.12z"/>
		<path class="st3" d="M539.97,942.12c2.48,8.84-3.68,15.27-1.61,21.7c2.38,7.4,53.77,5.66,54.46,1.03
			c1.38-9.26-29.01-10.4-33-17.69c-2.79-5.11-1.66-10.18-1.66-10.18L539.97,942.12z"/>
		<path class="st44" d="M538.76,589.12c0,0,30.71,125.17,35.79,166.33c5.09,41.29,3.12,95.11,4.71,116.26
			c1.59,21.14,1.26,40.03-0.23,49.71c-1.49,9.69-12.14,20.02-26.41,23.17s-26.99-2.86-31.19-14.63
			c-4.21-11.77-4.44-118.4-6.82-141.49c-2.38-23.09-37.77-111.82-37.77-111.82l2.5-82.27L538.76,589.12z"/>
		<path class="st45" d="M541.47,601.05l-11.03,2.26c0,0,7.07,11.88,16.4,19.23L541.47,601.05z"/>
		<g>
			
				<linearGradient id="SVGID_00000091728253450389611860000001389851315765131925_" gradientUnits="userSpaceOnUse" x1="668.4382" y1="537.7954" x2="636.585" y2="328.2348" gradientTransform="matrix(0.9585 -0.285 0.285 0.9585 -111.144 291.1507)">
				<stop  offset="0" style="stop-color:#FFB7A7"/>
				<stop  offset="1" style="stop-color:#FF9595"/>
			</linearGradient>
			<path style="fill:url(#SVGID_00000091728253450389611860000001389851315765131925_);" d="M621.72,488.19
				c0,0,27.32,33.72,43.83,51.34c16.5,17.62,52.28,54.06,52.28,54.06l-25.13,7.47c0,0-34.89-15.91-59.86-38.52
				c-26.42-23.93-45.84-53.15-45.84-53.15L621.72,488.19z"/>
			<path class="st22" d="M644.9,561.63c-22.75-20.59-37.12-43.68-37.12-43.68c13.64-8.07,19.94-17.2,22.04-19.69
				c-5.47-6.62-8.09-10.07-8.09-10.07l-34.74,21.19c0,0,19.42,29.23,45.84,53.15c24.97,22.61,59.86,38.52,59.86,38.52l4.64-1.38
				C687.61,593.69,662.81,577.85,644.9,561.63z"/>
			<path class="st37" d="M574.49,506.48c0,0,53.26-18.83,46.18-32.55c-11.04-12.03-27.45-51.62-41.59-61.23
				c-9.33-7.29-33.95,27.85-27.71,53.17C556.51,486.74,574.49,506.48,574.49,506.48z"/>
			<path class="st7" d="M571.79,508.17c14.73-7.38,39.42-23.61,50.18-36.63l12.45,14.81c-9.48,11.44-30.45,28.73-50.81,37.22
				L571.79,508.17z"/>
		</g>
		<g>
			<path class="st22" d="M564.98,381.69c-4.15,9.43-5.38,20.91-5.13,21.96c0,0-7.12,10.08-30.54,9.05
				c-14.25-5.91-27.08-18.63-27.08-18.63c4.51-1.62,15.78-4.12,23.24-18.81c6.33-12.46,5.86-34.38,5.86-34.38l14.85,5.78
				L564.98,381.69z"/>
			<path class="st38" d="M508.74,385.3c0,0-30.4,6.83-39.12,10.4c-26.28,10.77-34.76,42.45-51.16,88.26
				c-15.1,42.19-22.03,75.62-15.65,86.78c6.96,12.18,109.54,33.13,137.82,8.81c14.7-12.64,21.15-46.12,29.41-67.87
				c8.27-21.75,27.71-70.13,17.9-88.63c-6.04-11.39-20.42-21.01-20.42-21.01l-22.53,5.28L508.74,385.3z"/>
			<path class="st37" d="M502.89,583.66l-2.87-1.07c14.72-39.54,32.72-106.83,32.9-107.5c7.22-27.21,7.3-53.64,7.3-53.9h3.07
				c0,0.27-0.08,27.1-7.4,54.69C535.7,476.55,517.67,543.98,502.89,583.66z"/>
			<path class="st37" d="M445.54,417.32c-9.99,15.89-17.06,38.62-27.09,66.64c-15.1,42.19-22.76,77.82-15.65,86.78
				c8.72,11,109.54,33.13,137.82,8.81c6.56-5.64,11.48-15.43,15.64-26.48C477.09,517.65,451.42,439.72,445.54,417.32z"/>
			<path class="st47" d="M502.89,583.66l-2.87-1.07c4.87-13.08,10.66-30.72,17.2-52.44l2.94,0.88
				C513.6,552.82,507.79,570.52,502.89,583.66z"/>
			<polygon class="st37" points="510.19,384.87 507.35,385.72 526.7,429.4 537.07,419.87 540.67,425.19 546.75,420.27 
				552.24,433.52 568.22,402.48 566.98,401.66 545.42,406.18 			"/>
			<polygon class="st7" points="523.53,374.18 545.42,406.18 528.36,421.91 509.08,382.86 			"/>
			<polygon class="st7" points="545.42,406.18 554.25,426.63 568.27,400.65 562.12,388.41 			"/>
			<path class="st3" d="M540.79,592.86c-43.4,10.81-96.24,7.38-141-7.08l3.01-15.03c45.62,14.4,97.05,18.12,138.78,7.48
				L540.79,592.86z"/>
			<path class="st33" d="M466.64,604.51l-10.62-0.91c-0.75-0.06-1.3-0.72-1.24-1.47l1.73-20.17c0.06-0.75,0.72-1.3,1.47-1.24
				l10.62,0.91c0.75,0.06,1.3,0.72,1.24,1.47l-1.73,20.17C468.05,604.02,467.39,604.58,466.64,604.51z"/>
			<path class="st44" d="M534.3,601.5l-10.81,1.12c-0.69,0.07-1.31-0.43-1.38-1.12l-2.01-19.46c-0.07-0.69,0.43-1.31,1.12-1.38
				l10.81-1.12c0.69-0.07,1.31,0.43,1.38,1.12l2.01,19.46C535.49,600.81,534.99,601.43,534.3,601.5z"/>
			<path class="st33" d="M422.5,597.42l-10.24-2.3c-0.77-0.17-1.26-0.94-1.09-1.72l4.15-18.46c0.17-0.77,0.94-1.26,1.72-1.09
				l10.25,2.3c0.77,0.17,1.26,0.94,1.09,1.72l-4.15,18.46C424.05,597.1,423.28,597.59,422.5,597.42z"/>
			<polygon class="st7" points="582.1,486.74 556.76,483.38 560.32,469.13 585.66,472.49 			"/>
			<path class="st34" d="M498.63,580.91c-6.95,0-12.58,5.22-12.58,11.65s5.63,11.65,12.58,11.65c6.95,0,12.58-5.22,12.58-11.65
				S505.58,580.91,498.63,580.91z M498.63,599.24c-3.98,0-7.21-2.99-7.21-6.68c0-3.69,3.23-6.68,7.21-6.68s7.21,2.99,7.21,6.68
				C505.84,596.25,502.61,599.24,498.63,599.24z"/>
		</g>
		<path class="st48" d="M531.32,263.64c64.73-49.47,87.86,43.61,87.86,43.61s1.46,11.78-11.44,15.29
			c-5.13,1.39-37.03,13.77-37.03,13.77l-34.99,23.44c0,0-19.99-6.44-23.75-39.63C508.51,289.61,517.28,262.97,531.32,263.64z"/>
		
			<linearGradient id="SVGID_00000061456642809207611030000005756366326531505076_" gradientUnits="userSpaceOnUse" x1="1578.6328" y1="404.2189" x2="1554.243" y2="243.7598" gradientTransform="matrix(-0.9991 -0.0434 -0.0434 0.9991 2147.9736 53.6108)">
			<stop  offset="0" style="stop-color:#FFB7A7"/>
			<stop  offset="1" style="stop-color:#FF9595"/>
		</linearGradient>
		<path style="fill:url(#SVGID_00000061456642809207611030000005756366326531505076_);" d="M535.93,318.1
			c2.2,2.67,1.49,9.16,5.85,9.61c5.37,0.55,4.1-18.74,14.48-32.69c4.12-5.54,14.7-14.26,31.5-9.82c20.99,5.54,23.17,17.6,23.3,29.32
			c0.06,5.48-0.77,16.85-8.52,36.17c-9.24,23.02-22.13,35.97-31.93,36.57c-6.54,0.4-11.79-1.55-16.64-5.49
			c-8.28-6.73-17.46-17.7-19.88-39.04c-10.93-1.95-14.39-10.87-12.64-17.8C523.24,317.77,529.58,312.42,535.93,318.1z"/>
		<path class="st22" d="M535.12,328.56c0.3,3.89-1.57,7.21-4.17,7.41c-2.6,0.2-4.95-2.8-5.25-6.69c-0.3-3.89,1.57-7.21,4.17-7.41
			C532.47,321.67,534.82,324.66,535.12,328.56z"/>
		<g>
			<path class="st48" d="M598.02,319.47c1.59-3.45,6.79-1.96,11.05,0.87c3.48,2.32,4.86,8.04,3.24,9.28
				c-2.39,1.82-2.78-0.75-6.81-3.12C600.86,323.78,596.39,322.99,598.02,319.47z"/>
		</g>
		<g>
			<path class="st48" d="M581.37,313.14c-0.12-3.14-4.2-4.07-12.71-2.99c-7.38,0.93-13.69,5.52-12.42,7.89
				c1.33,2.47,5.58,0.76,13.02-0.52C574.82,316.56,581.53,317.48,581.37,313.14z"/>
		</g>
		<path class="st22" d="M593.44,319.52c-1.94,2.52-3.71,5.05-4.88,7.77c-0.62,1.37-1.12,2.77-1.41,4.22
			c-0.22,0.7-0.3,1.43-0.36,2.16c-0.05,0.73-0.21,1.44-0.13,2.17c-0.08,2.88,0.56,5.74,1.74,8.37c0.61,1.3,1.29,2.58,2.12,3.76
			c0.41,0.6,0.83,1.17,1.29,1.72c0.41,0.56,1.02,1.06,1.32,1.55l1.16,1.88l-0.9,1c-0.65,0.72-1.14,1.04-1.74,1.46
			c-0.58,0.37-1.18,0.7-1.79,0.95c-1.23,0.53-2.51,0.83-3.77,0.96c-2.54,0.2-4.95-0.28-7.11-1.13c-0.17-0.07-0.25-0.25-0.18-0.42
			c0.05-0.14,0.19-0.22,0.33-0.2c2.25,0.23,4.49-0.01,6.41-0.73c0.95-0.39,1.82-0.89,2.56-1.5c0.38-0.3,0.7-0.64,1.01-0.98
			c0.27-0.32,0.61-0.79,0.65-0.97l0.26,2.87c-0.78-0.64-1.19-1.34-1.72-2.03c-0.5-0.69-0.96-1.41-1.38-2.14
			c-0.87-1.45-1.57-3-2.17-4.58c-1.16-3.18-1.7-6.64-1.33-10.01c0.01-0.85,0.27-1.67,0.43-2.49c0.16-0.83,0.35-1.64,0.68-2.41
			c0.51-1.59,1.24-3.07,2.07-4.48c0.72-1.46,1.88-2.7,2.79-4.03c1.06-1.18,2.19-2.26,3.28-3.39c0.19-0.21,0.52-0.22,0.72-0.03
			C593.57,319.01,593.59,319.32,593.44,319.52z"/>
		<path class="st50" d="M560.62,323.49c0,0,0.57,1.45,1.73,3.14c1.05,1.77,2.95,3.47,5.13,4.3c0.51,0.23,1.21,0.36,1.65,0.5
			c0.83,0.18,1.04,0.17,1.6,0.19c0.98,0.01,1.99-0.15,2.86-0.54c1.73-0.79,3.01-1.82,3.01-1.82s0.03,0.42-0.19,1.08
			c-0.22,0.64-0.55,1.66-1.44,2.56c-0.82,0.95-2.18,1.93-3.91,2.18c-0.79,0.19-1.99,0.05-2.55-0.03c-0.94-0.16-1.65-0.42-2.45-0.78
			c-1.57-0.66-2.94-1.83-3.87-3.1c-0.88-1.33-1.36-2.68-1.63-3.82C560.14,324.98,560.62,323.49,560.62,323.49z"/>
		<path class="st50" d="M593.24,333.31c0,0,0.81,1,1.93,2.19c1.1,1.23,2.64,2.44,4.15,2.95c0.3,0.14,0.86,0.28,1.31,0.35
			c0.31,0.03,0.69,0.13,1.05,0.11c0.68-0.03,1.43-0.1,2.04-0.51c1.27-0.73,2.12-1.78,2.12-1.78s0.45,1.32-0.57,3.19
			c-0.54,0.85-1.54,1.94-2.97,2.31c-0.69,0.18-1.42,0.3-2.23,0.21c-0.66-0.08-1.23-0.14-1.99-0.41c-1.37-0.51-2.56-1.42-3.32-2.45
			c-0.79-1.02-1.14-2.14-1.42-3.03C592.89,334.58,593.24,333.31,593.24,333.31z"/>
		<g>
			<path class="st7" d="M548.16,335.59c0,0,3.68,4.02,14.71,6.22c9.43,1.89,18.85-2.17,24.13-0.66c5.28,1.51,8.48,9.33,15.53,9.52
				c0,0-9.5,33.37-31.93,36.57c-22.44,3.21-32.62-23.94-32.62-23.94S539.49,352.94,548.16,335.59z"/>
			<path class="st7" d="M548.4,339.44c-0.3,0-0.61-0.09-0.87-0.27c-5.81-4.02-10.12-13.95-10.3-14.38c-0.34-0.78,0.02-1.68,0.8-2.01
				c0.78-0.33,1.68,0.03,2.01,0.8c0.04,0.1,4.14,9.54,9.22,13.06c0.7,0.48,0.87,1.44,0.39,2.14
				C549.36,339.2,548.88,339.44,548.4,339.44z"/>
			<path class="st7" d="M539.85,365.26c-0.55,0-1.09-0.3-1.36-0.82c-4.66-8.92-6.82-20.35-6.92-20.83
				c-0.15-0.83,0.39-1.63,1.23-1.79c0.85-0.16,1.64,0.4,1.79,1.23c0.02,0.11,2.17,11.47,6.62,19.97c0.39,0.75,0.1,1.68-0.65,2.07
				C540.33,365.2,540.09,365.26,539.85,365.26z"/>
			<path class="st8" d="M587.35,341.27c1.41,5.29,3.16,6.71,2.66,13.16c-0.29,3.76-5.28,21.23-21.11,26.88
				c-8.42,3.01-16.35-0.06-21.94-3.59c5.34,5.89,13.15,11.03,23.64,9.53c22.44-3.21,31.93-36.57,31.93-36.57
				C595.64,350.49,592.43,343.01,587.35,341.27z"/>
			<g>
				<path class="st8" d="M557.14,355.69c11.74,4.86,25.04,7.57,37.78,7.03c0.68-0.03,0.68-1.02,0-1.06
					c-13.07-0.71-25.13-2.63-37.58-6.7C556.86,354.8,556.7,355.51,557.14,355.69z"/>
				<path class="st8" d="M566.36,366.08c6.53,2.92,13.83,4.72,21.02,4.4c0.83-0.04,0.81-1.21,0-1.27
					c-7.16-0.56-13.86-1.6-20.67-3.96C566.23,365.08,565.88,365.87,566.36,366.08z"/>
				<path class="st8" d="M555.52,370.02c8.08,4.91,18.21,7.84,27.7,7.59c0.78-0.02,0.74-1.1,0-1.18
					c-9.82-1.15-18.19-3.19-27.27-7.15C555.46,369.06,555.04,369.72,555.52,370.02z"/>
			</g>
		</g>
		<path class="st38" d="M602.27,259.99c-14.33-13.57-59.03-18.41-79.94,5.28c-7.22,8.18-10.31,18.88-11.48,28.48
			c6.86,4.42,9.12,13.18,9.12,13.18l-9.59,2.75c0.27,4.88,0.82,8,0.82,8c81.06-24.74,109.6-14.1,109.6-14.1
			S615.25,272.29,602.27,259.99z"/>
		<path class="st48" d="M512.06,294.49c0,0-6.22,10.18-4.81,19.37l3.14-4.18l6.34-1.9L512.06,294.49z"/>
		<path class="st38" d="M563.55,303.61c0,0,19.64,13.4,29.4,16.01c18.94,5.06,43.86,3.54,47.6,0.32
			c3.74-3.22-19.74-16.36-19.74-16.36S610,296.94,563.55,303.61z"/>
		<path class="st37" d="M571.16,298.45l48.87,1.38c-1.92-8.69-7.54-30.15-17.76-39.84c-7.44-7.04-23.05-11.74-39.28-11.31
			c1.9,0.06,27.06,0,32.54,18.08C602.32,289.14,571.16,298.45,571.16,298.45z"/>
		<path class="st37" d="M620.8,303.59c0,0-0.51-2.87-1.58-7.2c-43.92-8.11-99.25,10.55-99.25,10.55l-9.59,2.75
			c0.27,4.88,0.82,8,0.82,8C592.27,292.95,620.8,303.59,620.8,303.59z"/>
		<path class="st37" d="M593.68,316.7c-7.2-1.92-19.77-9.71-25.87-13.67c-1.39,0.18-2.81,0.38-4.26,0.59c0,0,19.64,13.4,29.4,16.01
			c18.94,5.06,43.86,3.54,47.6,0.32c0.63-0.54,0.49-1.36-0.18-2.36C634.53,320.4,611.47,321.45,593.68,316.7z"/>
		<g>
			<path class="st51" d="M684.3,633.02l64.86,0.23c2.6,0.01,4.72-1.98,4.74-4.43l0.66-138.2c0.01-2.46-2.09-4.46-4.7-4.47
				l-64.86-0.23c-2.6-0.01-4.72,1.98-4.74,4.43l-0.66,138.2C679.59,631,681.69,633.01,684.3,633.02z"/>
			<path class="st16" d="M691.46,633.04l-116.07-0.42c-2.57-0.01-4.64-1.98-4.63-4.41l0.64-138.34c0.01-2.42,2.1-4.38,4.67-4.37
				l116.07,0.42c2.57,0.01,4.64,1.98,4.63,4.41l-0.64,138.34C696.11,631.1,694.02,633.05,691.46,633.04z"/>
			<g>
				<path class="st51" d="M686.72,495.56c0,0-1.58,2.13-4.33,5.87c-2.83,3.68-6.73,9.04-11.66,15.27
					c-4.93,6.23-10.58,13.59-16.83,21.31c-6.21,7.75-12.96,15.91-19.7,24.09c-6.81,8.11-13.61,16.24-20.11,23.75
					c-6.45,7.55-12.67,14.43-17.9,20.42c-5.23,5.98-9.8,10.79-12.9,14.24c-3.17,3.39-4.99,5.32-4.99,5.32s1.57-2.13,4.33-5.87
					c2.83-3.68,6.73-9.04,11.66-15.27c4.94-6.23,10.58-13.59,16.83-21.31c6.21-7.75,12.96-15.91,19.71-24.08
					c6.81-8.11,13.61-16.23,20.11-23.74c6.46-7.54,12.67-14.43,17.9-20.42c5.24-5.98,9.8-10.79,12.9-14.24
					C684.9,497.49,686.72,495.56,686.72,495.56z"/>
				<path class="st51" d="M577.6,491.43c0,0,1.88,2.01,5.18,5.53c3.22,3.58,7.96,8.58,13.41,14.78c5.43,6.21,11.92,13.34,18.6,21.2
					c6.69,7.85,13.82,16.23,20.96,24.6c6.98,8.5,13.97,17,20.51,24.98c6.56,7.96,12.42,15.61,17.58,22.05
					c5.14,6.45,9.22,12.01,12.18,15.81c2.88,3.87,4.53,6.08,4.53,6.08s-1.88-2.01-5.18-5.53c-3.22-3.58-7.97-8.57-13.41-14.78
					c-5.43-6.21-11.93-13.33-18.6-21.2c-6.69-7.85-13.82-16.23-20.96-24.61c-6.98-8.5-13.97-17.01-20.51-24.98
					c-6.55-7.97-12.42-15.61-17.57-22.05c-5.14-6.46-9.22-12.01-12.18-15.81C579.25,493.64,577.6,491.43,577.6,491.43z"/>
			</g>
			<g>
				<path class="st52" d="M749.8,495.56c0,0-0.59,2.09-1.61,5.74c-1.11,3.62-2.54,8.85-4.54,15.03c-2.01,6.17-4.23,13.42-6.84,21.1
					c-2.57,7.7-5.46,15.85-8.34,24.01c-2.97,8.13-5.92,16.26-8.84,23.83c-2.86,7.59-5.78,14.59-8.15,20.63
					c-2.38,6.04-4.61,10.98-6.06,14.48c-1.53,3.47-2.41,5.45-2.41,5.45s0.59-2.09,1.61-5.74c1.11-3.62,2.53-8.86,4.54-15.03
					c2.01-6.17,4.22-13.42,6.84-21.1c2.57-7.7,5.46-15.85,8.35-24c2.97-8.13,5.92-16.26,8.84-23.83c2.87-7.59,5.77-14.59,8.15-20.63
					c2.38-6.04,4.61-10.98,6.06-14.48C748.92,497.54,749.8,495.56,749.8,495.56z"/>
				<path class="st52" d="M702.71,491.43c0,0,0.91,2.06,2.49,5.66c1.5,3.63,3.81,8.76,6.28,15.02c2.47,6.26,5.48,13.52,8.46,21.39
					c3.03,7.85,6.11,16.28,9.2,24.7c3,8.45,6.02,16.9,8.7,24.88c2.73,7.96,5.05,15.47,7.15,21.86c2.1,6.4,3.6,11.82,4.76,15.57
					c1.08,3.78,1.69,5.95,1.69,5.95s-0.91-2.06-2.5-5.66c-1.5-3.63-3.81-8.76-6.28-15.02c-2.47-6.26-5.48-13.52-8.46-21.39
					c-3.03-7.85-6.1-16.28-9.19-24.7c-3-8.45-6.02-16.91-8.7-24.88c-2.73-7.96-5.05-15.47-7.15-21.86c-2.1-6.4-3.6-11.82-4.76-15.57
					C703.32,493.59,702.71,491.43,702.71,491.43z"/>
			</g>
			<polygon class="st53" points="738.06,504.44 713.72,504.44 713.8,485.94 738.14,486.04 			"/>
			<g>
				<rect x="636.25" y="496.68" class="st51" width="51.56" height="31.3"/>
				<rect x="636.25" y="496.67" class="st29" width="49.86" height="29.81"/>
				<g>
					<g>
						<rect x="638.61" y="501.11" class="st54" width="3.53" height="20.93"/>
						<rect x="651.71" y="501.11" class="st54" width="3.53" height="20.93"/>
						<rect x="647.78" y="501.11" class="st54" width="2.65" height="20.93"/>
						<rect x="643.86" y="501.11" class="st54" width="1.76" height="20.93"/>
						<rect x="657.31" y="501.11" class="st54" width="1.06" height="20.93"/>
						<rect x="660.44" y="501.11" class="st54" width="3.53" height="20.93"/>
					</g>
					<rect x="667.35" y="501.11" class="st54" width="16.4" height="2.64"/>
					<rect x="667.35" y="504.88" class="st54" width="16.4" height="2.64"/>
					<rect x="667.35" y="510.73" class="st54" width="16.4" height="0.94"/>
					<rect x="667.35" y="514.18" class="st54" width="16.4" height="0.94"/>
					<rect x="667.35" y="517.64" class="st54" width="16.4" height="0.94"/>
					<rect x="667.35" y="521.1" class="st54" width="16.4" height="0.94"/>
				</g>
			</g>
		</g>
		<path class="st51" d="M639.65,545.99c4.11,2.46,3.29,4.65-0.54,9.04c-3.84,4.38-6.28,7.51-6.28,7.51s31.73-1.54,33.52,1.78
			c1.8,3.32-0.39,8.25-10.26,8.8c0,0,10.71-1.18,12.07,1.87s-2.48,9.36-18.37,9.09c0,0,7.5-0.6,8.27,1.48
			c0.77,2.08-0.42,7.29-17.22,6.38c-18.33-1-30.51-10.87-30.51-10.87l19.46-24.39L639.65,545.99z"/>
		
			<linearGradient id="SVGID_00000037676172709365573900000011898101115411285935_" gradientUnits="userSpaceOnUse" x1="551.8702" y1="593.9167" x2="525.5655" y2="420.8591">
			<stop  offset="0" style="stop-color:#FFB7A7"/>
			<stop  offset="1" style="stop-color:#FF9595"/>
		</linearGradient>
		<path style="fill:url(#SVGID_00000037676172709365573900000011898101115411285935_);" d="M513.47,481.33
			c4.9,12.07,20.74,32.43,36.58,44.87c19.77,15.53,34.35,29.19,61.75,32.66L610,580.5c0,0-48.6-2.47-87.48-26.77
			c-33.18-20.74-50.15-53.54-50.15-53.54L513.47,481.33z"/>
		<path class="st22" d="M603.78,579.96L603,557.5c-0.21-0.06-0.77-0.29-0.97-0.35c-5.39,3.91-8.41,16.65-8.41,16.65
			s-42.53-5.36-67.42-21.95c-24.89-16.59-39.5-41.1-39.5-41.1c16.93-6.91,30.06-17.61,32.14-19.36c-2.33-3.68-4.17-7.11-5.37-10.05
			l-41.1,18.85c0,0,16.97,32.8,50.15,53.54C553,572.77,589.44,578.41,603.78,579.96z"/>
		<path class="st38" d="M461.06,490.76l51.28-25.43c-7.66-12.81-22.82-72.96-51.7-62.07C431.76,414.15,443.34,461.72,461.06,490.76z
			"/>
		<path class="st7" d="M457.66,491.13c20.59-11.23,40.72-20.39,56.71-27.45l8.9,17.27c-12.33,9.83-33.18,19.5-56.56,27.53
			L457.66,491.13z"/>
		<path class="st38" d="M603.44,555.11c5.21,1.98,10.33,2.66,11.64,2.48c10.07-1.76,22.02-14.02,24.58-11.6
			c3.78,5.04-9.6,12.79-9.11,14.18c0.49,1.39,9.23,1.63,16.04,1.94c6.08,0.28,18.76-1.82,19.77,2.21
			c1.01,4.04-13.28,5.26-18.17,5.64c-4.89,0.38-9.7,0.2-10.54,1.17c-0.84,0.97,5.24,1.07,11.51,1.31
			c4.95,0.19,18.74-1.59,19.01,2.55c0.23,3.53-8,4.84-18.6,5.01c-7.55,0.12-11.93,0.45-11.97,1.35c-0.04,0.9,4.04,1.45,8.66,1.48
			c4.62,0.03,11.59,0.29,11.81,2.73c0.22,2.44-6.74,3.21-13.02,2.87c-6.28-0.35-21.34-0.31-35.36-6.23c0,0-2.62-1.33-13.59-2.03
			C596.1,580.16,596.42,563.48,603.44,555.11z"/>
	</g>
</g>
</svg>
