<svg xmlns="http://www.w3.org/2000/svg" viewBox="0 0 123.28 56.32"><defs><style>.cls-1{fill:#2c3e42;}.cls-2{fill:#fff;}</style></defs><g id="Layer_2" data-name="Layer 2"><g id="Layer_1-2" data-name="Layer 1"><path class="cls-1" d="M98.67,22.51h0a.86.86,0,0,1-.85-.83C97.48,13.6,92,11.1,90,10.44a.85.85,0,0,1-.58-1h0a.85.85,0,0,1,1.11-.65c2.41.81,8.66,3.79,9,12.81A.85.85,0,0,1,98.67,22.51Z"/><path class="cls-1" d="M114.69,15.35l-4,2.47a21.48,21.48,0,0,0-41.81-2.25,30.87,30.87,0,0,0-8.7-1.74s-1.09-.09-1.61-.08-1.62.09-1.62.09a30.78,30.78,0,0,0-8.69,1.74A21.48,21.48,0,0,0,6.39,18L2.52,15.36A1.55,1.55,0,0,0,.84,18L6.1,21.49a21.43,21.43,0,0,0,2.35,9.79H10.5a19.69,19.69,0,1,1,34.18,0h2a21.68,21.68,0,0,0,2-13.47A29.82,29.82,0,0,1,58.48,16a30.83,30.83,0,0,1,9.87,1.78,21.33,21.33,0,0,0,2,13.47h2a19.69,19.69,0,1,1,34.18,0h2A21.44,21.44,0,0,0,111,21.49s0-.12,0-.18L116.37,18a1.57,1.57,0,0,0,.72-1.32A1.56,1.56,0,0,0,114.69,15.35Z"/><path class="cls-2" d="M19.3,37.59V56.17H17.42V41.3l-7.3,12.51H9.19L1.89,41.38V56.17H0V37.59H1.62L9.69,51.37l8-13.78Z"/><path class="cls-2" d="M34.39,49.75v6.42H32.45V49.75L25,37.59h2.09L33.49,48l6.37-10.43h2Z"/><path class="cls-1" d="M46,37.41h4.3V52.49h9.32V56H46Z"/><path class="cls-1" d="M79.09,52.55V56H64.7V37.41h14v3.46H69v4h8.63v3.35H69v4.3Z"/><path class="cls-1" d="M102.22,37.41V56H98.69L89.43,44.71V56H85.18V37.41h3.56L98,48.7V37.41Z"/><path class="cls-1" d="M107.83,54.17l1.46-3.24a11,11,0,0,0,6.14,1.94c2.54,0,3.58-.85,3.58-2,0-3.47-10.81-1.08-10.81-8,0-3.16,2.55-5.79,7.84-5.79a12.48,12.48,0,0,1,6.45,1.65L121.16,42A10.41,10.41,0,0,0,116,40.55c-2.55,0-3.53,1-3.53,2.12,0,3.43,10.8,1.06,10.8,7.89,0,3.1-2.57,5.76-7.88,5.76A13.29,13.29,0,0,1,107.83,54.17Z"/></g></g></svg>